<?xml version="1.0" encoding="UTF-8" standalone="no"?>
<!DOCTYPE svg PUBLIC "-//W3C//DTD SVG 1.1//EN"
 "http://www.w3.org/Graphics/SVG/1.1/DTD/svg11.dtd">
<!-- Generated by graphviz version 2.40.1 (20161225.0304)
 -->
<!-- Title: tgs.parsers.svg.builder.SvgBuilder Pages: 1 -->
<svg width="284pt" height="106pt"
 viewBox="0.00 0.00 284.00 106.00" xmlns="http://www.w3.org/2000/svg" xmlns:xlink="http://www.w3.org/1999/xlink">
<g id="graph0" class="graph" transform="scale(1 1) rotate(0) translate(4 102)">
<title>tgs.parsers.svg.builder.SvgBuilder</title>
<polygon fill="#ffffff" stroke="transparent" points="-4,4 -4,-102 280,-102 280,4 -4,4"/>
<!-- Node3 -->
<g id="node1" class="node">
<title>Node3</title>
<polygon fill="#bfbfbf" stroke="#000000" points="74.5,-.5 74.5,-30.5 193.5,-30.5 193.5,-.5 74.5,-.5"/>
<text text-anchor="start" x="82.5" y="-18.5" font-family="Helvetica,sans-Serif" font-size="10.00" fill="#000000">tgs.parsers.svg.builder.</text>
<text text-anchor="middle" x="134" y="-7.5" font-family="Helvetica,sans-Serif" font-size="10.00" fill="#000000">SvgBuilder</text>
</g>
<!-- Node4 -->
<g id="node2" class="node">
<title>Node4</title>
<g id="a_node2"><a xlink:href="classtgs_1_1parsers_1_1svg_1_1handler_1_1SvgHandler.html" target="_top" xlink:title="tgs.parsers.svg.handler.\lSvgHandler">
<polygon fill="#ffffff" stroke="#000000" points="0,-67.5 0,-97.5 122,-97.5 122,-67.5 0,-67.5"/>
<text text-anchor="start" x="8" y="-85.5" font-family="Helvetica,sans-Serif" font-size="10.00" fill="#000000">tgs.parsers.svg.handler.</text>
<text text-anchor="middle" x="61" y="-74.5" font-family="Helvetica,sans-Serif" font-size="10.00" fill="#000000">SvgHandler</text>
</a>
</g>
</g>
<!-- Node4&#45;&gt;Node3 -->
<g id="edge1" class="edge">
<title>Node4&#45;&gt;Node3</title>
<path fill="none" stroke="#191970" d="M84.974,-60.4965C95.6267,-50.7193 107.8993,-39.4554 117.5007,-30.6432"/>
<polygon fill="#191970" stroke="#191970" points="82.5656,-57.9562 77.5648,-67.2967 87.2989,-63.1134 82.5656,-57.9562"/>
</g>
<!-- Node5 -->
<g id="node3" class="node">
<title>Node5</title>
<polygon fill="#ffffff" stroke="#bfbfbf" points="140,-73 140,-92 276,-92 276,-73 140,-73"/>
<text text-anchor="middle" x="208" y="-80" font-family="Helvetica,sans-Serif" font-size="10.00" fill="#000000">restructure::AbstractBuilder</text>
</g>
<!-- Node5&#45;&gt;Node3 -->
<g id="edge2" class="edge">
<title>Node5&#45;&gt;Node3</title>
<path fill="none" stroke="#191970" d="M189.7641,-65.9892C177.781,-55.1395 162.2267,-41.0566 150.5912,-30.5218"/>
<polygon fill="#191970" stroke="#191970" points="187.6355,-68.7833 197.3976,-72.9005 192.3337,-63.5942 187.6355,-68.7833"/>
</g>
</g>
</svg>
