<?xml version="1.0" encoding="UTF-8" standalone="no"?>
<!DOCTYPE svg PUBLIC "-//W3C//DTD SVG 1.1//EN"
 "http://www.w3.org/Graphics/SVG/1.1/DTD/svg11.dtd">
<!-- Generated by graphviz version 2.40.1 (20161225.0304)
 -->
<!-- Title: tgs.objects.properties.GradientColors Pages: 1 -->
<svg width="158pt" height="151pt"
 viewBox="0.00 0.00 158.00 151.00" xmlns="http://www.w3.org/2000/svg" xmlns:xlink="http://www.w3.org/1999/xlink">
<g id="graph0" class="graph" transform="scale(1 1) rotate(0) translate(4 147)">
<title>tgs.objects.properties.GradientColors</title>
<polygon fill="#ffffff" stroke="transparent" points="-4,4 -4,-147 154,-147 154,4 -4,4"/>
<!-- Node0 -->
<g id="node1" class="node">
<title>Node0</title>
<polygon fill="#bfbfbf" stroke="#000000" points="0,-.5 0,-30.5 150,-30.5 150,-.5 0,-.5"/>
<text text-anchor="start" x="8" y="-18.5" font-family="Helvetica,sans-Serif" font-size="10.00" fill="#000000">tgs.objects.properties.Gradient</text>
<text text-anchor="middle" x="75" y="-7.5" font-family="Helvetica,sans-Serif" font-size="10.00" fill="#000000">Colors</text>
</g>
<!-- Node1 -->
<g id="node2" class="node">
<title>Node1</title>
<g id="a_node2"><a xlink:href="classtgs_1_1objects_1_1base_1_1TgsObject.html" target="_top" xlink:title="tgs.objects.base.TgsObject">
<polygon fill="#ffffff" stroke="#000000" points="6.5,-67.5 6.5,-86.5 143.5,-86.5 143.5,-67.5 6.5,-67.5"/>
<text text-anchor="middle" x="75" y="-74.5" font-family="Helvetica,sans-Serif" font-size="10.00" fill="#000000">tgs.objects.base.TgsObject</text>
</a>
</g>
</g>
<!-- Node1&#45;&gt;Node0 -->
<g id="edge1" class="edge">
<title>Node1&#45;&gt;Node0</title>
<path fill="none" stroke="#191970" d="M75,-57.3693C75,-48.681 75,-38.6241 75,-30.5446"/>
<polygon fill="#191970" stroke="#191970" points="71.5001,-57.3906 75,-67.3906 78.5001,-57.3907 71.5001,-57.3906"/>
</g>
<!-- Node2 -->
<g id="node3" class="node">
<title>Node2</title>
<g id="a_node3"><a xlink:href="classtgs_1_1objects_1_1base_1_1Tgs.html" target="_top" xlink:title="tgs.objects.base.Tgs">
<polygon fill="#ffffff" stroke="#000000" points="21,-123.5 21,-142.5 129,-142.5 129,-123.5 21,-123.5"/>
<text text-anchor="middle" x="75" y="-130.5" font-family="Helvetica,sans-Serif" font-size="10.00" fill="#000000">tgs.objects.base.Tgs</text>
</a>
</g>
</g>
<!-- Node2&#45;&gt;Node1 -->
<g id="edge2" class="edge">
<title>Node2&#45;&gt;Node1</title>
<path fill="none" stroke="#191970" d="M75,-113.1575C75,-104.155 75,-93.9199 75,-86.6427"/>
<polygon fill="#191970" stroke="#191970" points="71.5001,-113.2455 75,-123.2455 78.5001,-113.2456 71.5001,-113.2455"/>
</g>
</g>
</svg>
