<?xml version="1.0" encoding="UTF-8" standalone="no"?>
<!DOCTYPE svg PUBLIC "-//W3C//DTD SVG 1.1//EN"
 "http://www.w3.org/Graphics/SVG/1.1/DTD/svg11.dtd">
<!-- Generated by graphviz version 2.40.1 (20161225.0304)
 -->
<!-- Title: tgs.objects.properties.Value Pages: 1 -->
<svg width="326pt" height="151pt"
 viewBox="0.00 0.00 325.50 151.00" xmlns="http://www.w3.org/2000/svg" xmlns:xlink="http://www.w3.org/1999/xlink">
<g id="graph0" class="graph" transform="scale(1 1) rotate(0) translate(4 147)">
<title>tgs.objects.properties.Value</title>
<polygon fill="#ffffff" stroke="transparent" points="-4,4 -4,-147 321.5,-147 321.5,4 -4,4"/>
<!-- Node0 -->
<g id="node1" class="node">
<title>Node0</title>
<polygon fill="#bfbfbf" stroke="#000000" points="83.5,-.5 83.5,-19.5 221.5,-19.5 221.5,-.5 83.5,-.5"/>
<text text-anchor="middle" x="152.5" y="-7.5" font-family="Helvetica,sans-Serif" font-size="10.00" fill="#000000">tgs.objects.properties.Value</text>
</g>
<!-- Node1 -->
<g id="node2" class="node">
<title>Node1</title>
<g id="a_node2"><a xlink:href="classtgs_1_1objects_1_1base_1_1TgsObject.html" target="_top" xlink:title="tgs.objects.base.TgsObject">
<polygon fill="#ffffff" stroke="#000000" points="0,-62 0,-81 137,-81 137,-62 0,-62"/>
<text text-anchor="middle" x="68.5" y="-69" font-family="Helvetica,sans-Serif" font-size="10.00" fill="#000000">tgs.objects.base.TgsObject</text>
</a>
</g>
</g>
<!-- Node1&#45;&gt;Node0 -->
<g id="edge1" class="edge">
<title>Node1&#45;&gt;Node0</title>
<path fill="none" stroke="#191970" d="M89.7137,-55.9685C105.373,-44.5037 126.1869,-29.265 139.4672,-19.5419"/>
<polygon fill="#191970" stroke="#191970" points="87.626,-53.1592 81.625,-61.8906 91.7612,-58.8072 87.626,-53.1592"/>
</g>
<!-- Node2 -->
<g id="node3" class="node">
<title>Node2</title>
<g id="a_node3"><a xlink:href="classtgs_1_1objects_1_1base_1_1Tgs.html" target="_top" xlink:title="tgs.objects.base.Tgs">
<polygon fill="#ffffff" stroke="#000000" points="14.5,-123.5 14.5,-142.5 122.5,-142.5 122.5,-123.5 14.5,-123.5"/>
<text text-anchor="middle" x="68.5" y="-130.5" font-family="Helvetica,sans-Serif" font-size="10.00" fill="#000000">tgs.objects.base.Tgs</text>
</a>
</g>
</g>
<!-- Node2&#45;&gt;Node1 -->
<g id="edge2" class="edge">
<title>Node2&#45;&gt;Node1</title>
<path fill="none" stroke="#191970" d="M68.5,-113.2462C68.5,-102.5519 68.5,-89.814 68.5,-81.2449"/>
<polygon fill="#191970" stroke="#191970" points="65.0001,-113.3906 68.5,-123.3906 72.0001,-113.3907 65.0001,-113.3906"/>
</g>
<!-- Node3 -->
<g id="node4" class="node">
<title>Node3</title>
<g id="a_node4"><a xlink:href="classtgs_1_1objects_1_1properties_1_1AnimatableMixin.html" target="_top" xlink:title="tgs.objects.properties.Animatable\lMixin">
<polygon fill="#ffffff" stroke="#000000" points="155.5,-56.5 155.5,-86.5 317.5,-86.5 317.5,-56.5 155.5,-56.5"/>
<text text-anchor="start" x="163.5" y="-74.5" font-family="Helvetica,sans-Serif" font-size="10.00" fill="#000000">tgs.objects.properties.Animatable</text>
<text text-anchor="middle" x="236.5" y="-63.5" font-family="Helvetica,sans-Serif" font-size="10.00" fill="#000000">Mixin</text>
</a>
</g>
</g>
<!-- Node3&#45;&gt;Node0 -->
<g id="edge3" class="edge">
<title>Node3&#45;&gt;Node0</title>
<path fill="none" stroke="#191970" d="M207.317,-50.1339C193.2524,-39.8366 177.0669,-27.9865 165.9495,-19.8469"/>
<polygon fill="#191970" stroke="#191970" points="205.5997,-53.2143 215.7359,-56.2977 209.7349,-47.5663 205.5997,-53.2143"/>
</g>
</g>
</svg>
