<?xml version="1.0" encoding="UTF-8" standalone="no"?>
<!DOCTYPE svg PUBLIC "-//W3C//DTD SVG 1.1//EN"
 "http://www.w3.org/Graphics/SVG/1.1/DTD/svg11.dtd">
<!-- Generated by graphviz version 2.40.1 (20161225.0304)
 -->
<!-- Title: tgs.objects.enums.TestBased Pages: 1 -->
<svg width="206pt" height="140pt"
 viewBox="0.00 0.00 206.00 140.00" xmlns="http://www.w3.org/2000/svg" xmlns:xlink="http://www.w3.org/1999/xlink">
<g id="graph0" class="graph" transform="scale(1 1) rotate(0) translate(4 136)">
<title>tgs.objects.enums.TestBased</title>
<polygon fill="#ffffff" stroke="transparent" points="-4,4 -4,-136 202,-136 202,4 -4,4"/>
<!-- Node4 -->
<g id="node1" class="node">
<title>Node4</title>
<polygon fill="#bfbfbf" stroke="#000000" points="34.5,-.5 34.5,-19.5 181.5,-19.5 181.5,-.5 34.5,-.5"/>
<text text-anchor="middle" x="108" y="-7.5" font-family="Helvetica,sans-Serif" font-size="10.00" fill="#000000">tgs.objects.enums.TestBased</text>
</g>
<!-- Node5 -->
<g id="node2" class="node">
<title>Node5</title>
<g id="a_node2"><a xlink:href="classtgs_1_1objects_1_1base_1_1TgsEnum.html" target="_top" xlink:title="tgs.objects.base.TgsEnum">
<polygon fill="#ffffff" stroke="#000000" points="41,-56.5 41,-75.5 175,-75.5 175,-56.5 41,-56.5"/>
<text text-anchor="middle" x="108" y="-63.5" font-family="Helvetica,sans-Serif" font-size="10.00" fill="#000000">tgs.objects.base.TgsEnum</text>
</a>
</g>
</g>
<!-- Node5&#45;&gt;Node4 -->
<g id="edge1" class="edge">
<title>Node5&#45;&gt;Node4</title>
<path fill="none" stroke="#191970" d="M108,-46.1575C108,-37.155 108,-26.9199 108,-19.6427"/>
<polygon fill="#191970" stroke="#191970" points="104.5001,-46.2455 108,-56.2455 111.5001,-46.2456 104.5001,-46.2455"/>
</g>
<!-- Node6 -->
<g id="node3" class="node">
<title>Node6</title>
<g id="a_node3"><a xlink:href="classtgs_1_1objects_1_1base_1_1Tgs.html" target="_top" xlink:title="tgs.objects.base.Tgs">
<polygon fill="#ffffff" stroke="#000000" points="0,-112.5 0,-131.5 108,-131.5 108,-112.5 0,-112.5"/>
<text text-anchor="middle" x="54" y="-119.5" font-family="Helvetica,sans-Serif" font-size="10.00" fill="#000000">tgs.objects.base.Tgs</text>
</a>
</g>
</g>
<!-- Node6&#45;&gt;Node5 -->
<g id="edge2" class="edge">
<title>Node6&#45;&gt;Node5</title>
<path fill="none" stroke="#191970" d="M70.5969,-104.7884C79.8347,-95.2085 90.9904,-83.6396 98.7017,-75.6427"/>
<polygon fill="#191970" stroke="#191970" points="67.828,-102.6176 63.4061,-112.2455 72.8669,-107.4766 67.828,-102.6176"/>
</g>
<!-- Node7 -->
<g id="node4" class="node">
<title>Node7</title>
<polygon fill="#ffffff" stroke="#bfbfbf" points="126,-112.5 126,-131.5 198,-131.5 198,-112.5 126,-112.5"/>
<text text-anchor="middle" x="162" y="-119.5" font-family="Helvetica,sans-Serif" font-size="10.00" fill="#000000">enum::Enum</text>
</g>
<!-- Node7&#45;&gt;Node5 -->
<g id="edge3" class="edge">
<title>Node7&#45;&gt;Node5</title>
<path fill="none" stroke="#191970" d="M145.4031,-104.7884C136.1653,-95.2085 125.0096,-83.6396 117.2983,-75.6427"/>
<polygon fill="#191970" stroke="#191970" points="143.1331,-107.4766 152.5939,-112.2455 148.172,-102.6176 143.1331,-107.4766"/>
</g>
</g>
</svg>
