<?xml version="1.0" encoding="UTF-8" standalone="no"?>
<!DOCTYPE svg PUBLIC "-//W3C//DTD SVG 1.1//EN"
 "http://www.w3.org/Graphics/SVG/1.1/DTD/svg11.dtd">
<!-- Generated by graphviz version 2.40.1 (20161225.0304)
 -->
<!-- Title: tgs.objects.base.TgsEnum Pages: 1 -->
<svg width="483pt" height="332pt"
 viewBox="0.00 0.00 483.00 332.00" xmlns="http://www.w3.org/2000/svg" xmlns:xlink="http://www.w3.org/1999/xlink">
<g id="graph0" class="graph" transform="scale(1 1) rotate(0) translate(4 328)">
<title>tgs.objects.base.TgsEnum</title>
<polygon fill="#ffffff" stroke="transparent" points="-4,4 -4,-328 479,-328 479,4 -4,4"/>
<!-- Node0 -->
<g id="node1" class="node">
<title>Node0</title>
<polygon fill="#bfbfbf" stroke="#000000" points="144,-152.5 144,-171.5 278,-171.5 278,-152.5 144,-152.5"/>
<text text-anchor="middle" x="211" y="-159.5" font-family="Helvetica,sans-Serif" font-size="10.00" fill="#000000">tgs.objects.base.TgsEnum</text>
</g>
<!-- Node3 -->
<g id="node4" class="node">
<title>Node3</title>
<g id="a_node4"><a xlink:href="classtgs_1_1objects_1_1enums_1_1TestBased.html" target="_top" xlink:title="tgs.objects.enums.TestBased">
<polygon fill="#ffffff" stroke="#000000" points="321,-304.5 321,-323.5 468,-323.5 468,-304.5 321,-304.5"/>
<text text-anchor="middle" x="394.5" y="-311.5" font-family="Helvetica,sans-Serif" font-size="10.00" fill="#000000">tgs.objects.enums.TestBased</text>
</a>
</g>
</g>
<!-- Node0&#45;&gt;Node3 -->
<g id="edge3" class="edge">
<title>Node0&#45;&gt;Node3</title>
<path fill="none" stroke="#191970" d="M220.0682,-180.6129C235.2721,-209.768 268.7442,-265.8767 314,-295 320.0377,-298.8854 326.7877,-301.9779 333.7416,-304.4389"/>
<polygon fill="#191970" stroke="#191970" points="223.1012,-178.855 215.4628,-171.5129 216.8555,-182.0158 223.1012,-178.855"/>
</g>
<!-- Node4 -->
<g id="node5" class="node">
<title>Node4</title>
<g id="a_node5"><a xlink:href="classtgs_1_1objects_1_1enums_1_1TextGrouping.html" target="_top" xlink:title="tgs.objects.enums.TextGrouping">
<polygon fill="#ffffff" stroke="#000000" points="315.5,-266.5 315.5,-285.5 473.5,-285.5 473.5,-266.5 315.5,-266.5"/>
<text text-anchor="middle" x="394.5" y="-273.5" font-family="Helvetica,sans-Serif" font-size="10.00" fill="#000000">tgs.objects.enums.TextGrouping</text>
</a>
</g>
</g>
<!-- Node0&#45;&gt;Node4 -->
<g id="edge4" class="edge">
<title>Node0&#45;&gt;Node4</title>
<path fill="none" stroke="#191970" d="M224.9723,-179.5312C243.1514,-201.1199 276.9931,-237.337 314,-257 321.3549,-260.9079 329.5092,-264.0203 337.7232,-266.4971"/>
<polygon fill="#191970" stroke="#191970" points="227.4393,-177.0209 218.3829,-171.5225 222.0338,-181.4685 227.4393,-177.0209"/>
</g>
<!-- Node5 -->
<g id="node6" class="node">
<title>Node5</title>
<g id="a_node6"><a xlink:href="classtgs_1_1objects_1_1enums_1_1TextShape.html" target="_top" xlink:title="tgs.objects.enums.TextShape">
<polygon fill="#ffffff" stroke="#000000" points="321,-228.5 321,-247.5 468,-247.5 468,-228.5 321,-228.5"/>
<text text-anchor="middle" x="394.5" y="-235.5" font-family="Helvetica,sans-Serif" font-size="10.00" fill="#000000">tgs.objects.enums.TextShape</text>
</a>
</g>
</g>
<!-- Node0&#45;&gt;Node5 -->
<g id="edge5" class="edge">
<title>Node0&#45;&gt;Node5</title>
<path fill="none" stroke="#191970" d="M233.9349,-177.0973C254.242,-189.8679 285.0679,-207.8244 314,-219 323.6445,-222.7254 334.2316,-225.8582 344.4683,-228.437"/>
<polygon fill="#191970" stroke="#191970" points="235.7007,-174.0722 225.3893,-171.6377 231.9319,-179.9711 235.7007,-174.0722"/>
</g>
<!-- Node6 -->
<g id="node7" class="node">
<title>Node6</title>
<g id="a_node7"><a xlink:href="classtgs_1_1objects_1_1layers_1_1BlendMode.html" target="_top" xlink:title="tgs.objects.layers.BlendMode">
<polygon fill="#ffffff" stroke="#000000" points="321.5,-190.5 321.5,-209.5 467.5,-209.5 467.5,-190.5 321.5,-190.5"/>
<text text-anchor="middle" x="394.5" y="-197.5" font-family="Helvetica,sans-Serif" font-size="10.00" fill="#000000">tgs.objects.layers.BlendMode</text>
</a>
</g>
</g>
<!-- Node0&#45;&gt;Node6 -->
<g id="edge6" class="edge">
<title>Node0&#45;&gt;Node6</title>
<path fill="none" stroke="#191970" d="M267.4069,-173.681C293.4296,-179.0699 323.9301,-185.3861 348.5282,-190.4799"/>
<polygon fill="#191970" stroke="#191970" points="267.8068,-170.1896 257.3048,-171.589 266.3873,-177.0442 267.8068,-170.1896"/>
</g>
<!-- Node7 -->
<g id="node8" class="node">
<title>Node7</title>
<g id="a_node8"><a xlink:href="classtgs_1_1objects_1_1shapes_1_1Composite.html" target="_top" xlink:title="tgs.objects.shapes.Composite">
<polygon fill="#ffffff" stroke="#000000" points="320,-152.5 320,-171.5 469,-171.5 469,-152.5 320,-152.5"/>
<text text-anchor="middle" x="394.5" y="-159.5" font-family="Helvetica,sans-Serif" font-size="10.00" fill="#000000">tgs.objects.shapes.Composite</text>
</a>
</g>
</g>
<!-- Node0&#45;&gt;Node7 -->
<g id="edge7" class="edge">
<title>Node0&#45;&gt;Node7</title>
<path fill="none" stroke="#191970" d="M288.0393,-162C298.5875,-162 309.4019,-162 319.9054,-162"/>
<polygon fill="#191970" stroke="#191970" points="288.0267,-158.5001 278.0266,-162 288.0266,-165.5001 288.0267,-158.5001"/>
</g>
<!-- Node8 -->
<g id="node9" class="node">
<title>Node8</title>
<g id="a_node9"><a xlink:href="classtgs_1_1objects_1_1shapes_1_1GradientType.html" target="_top" xlink:title="tgs.objects.shapes.GradientType">
<polygon fill="#ffffff" stroke="#000000" points="314,-114.5 314,-133.5 475,-133.5 475,-114.5 314,-114.5"/>
<text text-anchor="middle" x="394.5" y="-121.5" font-family="Helvetica,sans-Serif" font-size="10.00" fill="#000000">tgs.objects.shapes.GradientType</text>
</a>
</g>
</g>
<!-- Node0&#45;&gt;Node8 -->
<g id="edge8" class="edge">
<title>Node0&#45;&gt;Node8</title>
<path fill="none" stroke="#191970" d="M267.4069,-150.319C293.4296,-144.9301 323.9301,-138.6139 348.5282,-133.5201"/>
<polygon fill="#191970" stroke="#191970" points="266.3873,-146.9558 257.3048,-152.411 267.8068,-153.8104 266.3873,-146.9558"/>
</g>
<!-- Node9 -->
<g id="node10" class="node">
<title>Node9</title>
<g id="a_node10"><a xlink:href="classtgs_1_1objects_1_1shapes_1_1LineCap.html" target="_top" xlink:title="tgs.objects.shapes.LineCap">
<polygon fill="#ffffff" stroke="#000000" points="325.5,-76.5 325.5,-95.5 463.5,-95.5 463.5,-76.5 325.5,-76.5"/>
<text text-anchor="middle" x="394.5" y="-83.5" font-family="Helvetica,sans-Serif" font-size="10.00" fill="#000000">tgs.objects.shapes.LineCap</text>
</a>
</g>
</g>
<!-- Node0&#45;&gt;Node9 -->
<g id="edge9" class="edge">
<title>Node0&#45;&gt;Node9</title>
<path fill="none" stroke="#191970" d="M233.9349,-146.9027C254.242,-134.1321 285.0679,-116.1756 314,-105 323.6445,-101.2746 334.2316,-98.1418 344.4683,-95.563"/>
<polygon fill="#191970" stroke="#191970" points="231.9319,-144.0289 225.3893,-152.3623 235.7007,-149.9278 231.9319,-144.0289"/>
</g>
<!-- Node10 -->
<g id="node11" class="node">
<title>Node10</title>
<g id="a_node11"><a xlink:href="classtgs_1_1objects_1_1shapes_1_1LineJoin.html" target="_top" xlink:title="tgs.objects.shapes.LineJoin">
<polygon fill="#ffffff" stroke="#000000" points="325.5,-38.5 325.5,-57.5 463.5,-57.5 463.5,-38.5 325.5,-38.5"/>
<text text-anchor="middle" x="394.5" y="-45.5" font-family="Helvetica,sans-Serif" font-size="10.00" fill="#000000">tgs.objects.shapes.LineJoin</text>
</a>
</g>
</g>
<!-- Node0&#45;&gt;Node10 -->
<g id="edge10" class="edge">
<title>Node0&#45;&gt;Node10</title>
<path fill="none" stroke="#191970" d="M224.9723,-144.4688C243.1514,-122.8801 276.9931,-86.663 314,-67 321.3549,-63.0921 329.5092,-59.9797 337.7232,-57.5029"/>
<polygon fill="#191970" stroke="#191970" points="222.0338,-142.5315 218.3829,-152.4775 227.4393,-146.9791 222.0338,-142.5315"/>
</g>
<!-- Node11 -->
<g id="node12" class="node">
<title>Node11</title>
<g id="a_node12"><a xlink:href="classtgs_1_1objects_1_1shapes_1_1StarType.html" target="_top" xlink:title="tgs.objects.shapes.StarType">
<polygon fill="#ffffff" stroke="#000000" points="323.5,-.5 323.5,-19.5 465.5,-19.5 465.5,-.5 323.5,-.5"/>
<text text-anchor="middle" x="394.5" y="-7.5" font-family="Helvetica,sans-Serif" font-size="10.00" fill="#000000">tgs.objects.shapes.StarType</text>
</a>
</g>
</g>
<!-- Node0&#45;&gt;Node11 -->
<g id="edge11" class="edge">
<title>Node0&#45;&gt;Node11</title>
<path fill="none" stroke="#191970" d="M220.0682,-143.3871C235.2721,-114.232 268.7442,-58.1233 314,-29 320.0377,-25.1146 326.7877,-22.0221 333.7416,-19.5611"/>
<polygon fill="#191970" stroke="#191970" points="216.8555,-141.9842 215.4628,-152.4871 223.1012,-145.145 216.8555,-141.9842"/>
</g>
<!-- Node1 -->
<g id="node2" class="node">
<title>Node1</title>
<g id="a_node2"><a xlink:href="classtgs_1_1objects_1_1base_1_1Tgs.html" target="_top" xlink:title="tgs.objects.base.Tgs">
<polygon fill="#ffffff" stroke="#000000" points="0,-171.5 0,-190.5 108,-190.5 108,-171.5 0,-171.5"/>
<text text-anchor="middle" x="54" y="-178.5" font-family="Helvetica,sans-Serif" font-size="10.00" fill="#000000">tgs.objects.base.Tgs</text>
</a>
</g>
</g>
<!-- Node1&#45;&gt;Node0 -->
<g id="edge1" class="edge">
<title>Node1&#45;&gt;Node0</title>
<path fill="none" stroke="#191970" d="M118.1987,-173.2307C126.6505,-172.2079 135.3311,-171.1574 143.8308,-170.1288"/>
<polygon fill="#191970" stroke="#191970" points="117.5375,-169.7851 108.0305,-174.4613 118.3786,-176.7344 117.5375,-169.7851"/>
</g>
<!-- Node2 -->
<g id="node3" class="node">
<title>Node2</title>
<polygon fill="#ffffff" stroke="#bfbfbf" points="18,-133.5 18,-152.5 90,-152.5 90,-133.5 18,-133.5"/>
<text text-anchor="middle" x="54" y="-140.5" font-family="Helvetica,sans-Serif" font-size="10.00" fill="#000000">enum::Enum</text>
</g>
<!-- Node2&#45;&gt;Node0 -->
<g id="edge2" class="edge">
<title>Node2&#45;&gt;Node0</title>
<path fill="none" stroke="#191970" d="M100.1662,-148.587C113.8896,-150.2478 129.2105,-152.1019 143.9776,-153.889"/>
<polygon fill="#191970" stroke="#191970" points="100.3671,-145.0858 90.019,-147.359 99.526,-152.0351 100.3671,-145.0858"/>
</g>
</g>
</svg>
