<?xml version="1.0" encoding="UTF-8" standalone="no"?>
<!DOCTYPE svg PUBLIC "-//W3C//DTD SVG 1.1//EN"
 "http://www.w3.org/Graphics/SVG/1.1/DTD/svg11.dtd">
<!-- Generated by graphviz version 2.40.1 (20161225.0304)
 -->
<!-- Title: tgs.objects.base.TgsObject Pages: 1 -->
<svg width="481pt" height="2057pt"
 viewBox="0.00 0.00 481.00 2057.00" xmlns="http://www.w3.org/2000/svg" xmlns:xlink="http://www.w3.org/1999/xlink">
<g id="graph0" class="graph" transform="scale(1 1) rotate(0) translate(4 2053)">
<title>tgs.objects.base.TgsObject</title>
<polygon fill="#ffffff" stroke="transparent" points="-4,4 -4,-2053 477,-2053 477,4 -4,4"/>
<!-- Node0 -->
<g id="node1" class="node">
<title>Node0</title>
<polygon fill="#bfbfbf" stroke="#000000" points="144,-954.5 144,-973.5 281,-973.5 281,-954.5 144,-954.5"/>
<text text-anchor="middle" x="212.5" y="-961.5" font-family="Helvetica,sans-Serif" font-size="10.00" fill="#000000">tgs.objects.base.TgsObject</text>
</g>
<!-- Node2 -->
<g id="node3" class="node">
<title>Node2</title>
<g id="a_node3"><a xlink:href="classtgs_1_1objects_1_1animation_1_1Animation.html" target="_top" xlink:title="tgs.objects.animation.Animation">
<polygon fill="#ffffff" stroke="#000000" points="317,-2029.5 317,-2048.5 473,-2048.5 473,-2029.5 317,-2029.5"/>
<text text-anchor="middle" x="395" y="-2036.5" font-family="Helvetica,sans-Serif" font-size="10.00" fill="#000000">tgs.objects.animation.Animation</text>
</a>
</g>
</g>
<!-- Node0&#45;&gt;Node2 -->
<g id="edge2" class="edge">
<title>Node0&#45;&gt;Node2</title>
<path fill="none" stroke="#191970" d="M213.1068,-983.942C217.4983,-1122.4992 246.2686,-1938.5775 317,-2020 320.2905,-2023.7879 324.1981,-2026.8862 328.484,-2029.4139"/>
<polygon fill="#191970" stroke="#191970" points="216.5941,-983.4748 212.7845,-973.5885 209.5975,-983.6926 216.5941,-983.4748"/>
</g>
<!-- Node3 -->
<g id="node4" class="node">
<title>Node3</title>
<g id="a_node4"><a xlink:href="classtgs_1_1objects_1_1easing_1_1KeyframeBezierPoint.html" target="_top" xlink:title="tgs.objects.easing.Keyframe\lBezierPoint">
<polygon fill="#ffffff" stroke="#000000" points="324.5,-1980 324.5,-2010 465.5,-2010 465.5,-1980 324.5,-1980"/>
<text text-anchor="start" x="332.5" y="-1998" font-family="Helvetica,sans-Serif" font-size="10.00" fill="#000000">tgs.objects.easing.Keyframe</text>
<text text-anchor="middle" x="395" y="-1987" font-family="Helvetica,sans-Serif" font-size="10.00" fill="#000000">BezierPoint</text>
</a>
</g>
</g>
<!-- Node0&#45;&gt;Node3 -->
<g id="edge3" class="edge">
<title>Node0&#45;&gt;Node3</title>
<path fill="none" stroke="#191970" d="M213.2573,-983.8051C218.5577,-1118.0476 251.8069,-1891.6635 317,-1971 319.7885,-1974.3934 323.0454,-1977.3169 326.6164,-1979.8346"/>
<polygon fill="#191970" stroke="#191970" points="216.7515,-983.586 212.865,-973.7298 209.7568,-983.8584 216.7515,-983.586"/>
</g>
<!-- Node4 -->
<g id="node5" class="node">
<title>Node4</title>
<g id="a_node5"><a xlink:href="classtgs_1_1objects_1_1effects_1_1AngleEffect.html" target="_top" xlink:title="tgs.objects.effects.Angle\lEffect">
<polygon fill="#ffffff" stroke="#000000" points="332.5,-1931 332.5,-1961 457.5,-1961 457.5,-1931 332.5,-1931"/>
<text text-anchor="start" x="340.5" y="-1949" font-family="Helvetica,sans-Serif" font-size="10.00" fill="#000000">tgs.objects.effects.Angle</text>
<text text-anchor="middle" x="395" y="-1938" font-family="Helvetica,sans-Serif" font-size="10.00" fill="#000000">Effect</text>
</a>
</g>
</g>
<!-- Node0&#45;&gt;Node4 -->
<g id="edge4" class="edge">
<title>Node0&#45;&gt;Node4</title>
<path fill="none" stroke="#191970" d="M213.3599,-983.6348C219.216,-1113.5784 254.8738,-1846.7989 317,-1922 321.2412,-1927.1338 326.5542,-1931.1914 332.4024,-1934.3951"/>
<polygon fill="#191970" stroke="#191970" points="216.8524,-983.387 212.9112,-973.5526 209.8594,-983.6983 216.8524,-983.387"/>
</g>
<!-- Node5 -->
<g id="node6" class="node">
<title>Node5</title>
<g id="a_node6"><a xlink:href="classtgs_1_1objects_1_1effects_1_1CheckBoxEffect.html" target="_top" xlink:title="tgs.objects.effects.Check\lBoxEffect">
<polygon fill="#ffffff" stroke="#000000" points="330.5,-1882 330.5,-1912 459.5,-1912 459.5,-1882 330.5,-1882"/>
<text text-anchor="start" x="338.5" y="-1900" font-family="Helvetica,sans-Serif" font-size="10.00" fill="#000000">tgs.objects.effects.Check</text>
<text text-anchor="middle" x="395" y="-1889" font-family="Helvetica,sans-Serif" font-size="10.00" fill="#000000">BoxEffect</text>
</a>
</g>
</g>
<!-- Node0&#45;&gt;Node5 -->
<g id="edge5" class="edge">
<title>Node0&#45;&gt;Node5</title>
<path fill="none" stroke="#191970" d="M213.4889,-983.7912C219.9731,-1110.2374 257.9886,-1801.9902 317,-1873 320.7127,-1877.4676 325.2369,-1881.1198 330.2174,-1884.1032"/>
<polygon fill="#191970" stroke="#191970" points="216.9761,-983.4476 212.9741,-973.6377 209.9851,-983.8021 216.9761,-983.4476"/>
</g>
<!-- Node6 -->
<g id="node7" class="node">
<title>Node6</title>
<g id="a_node7"><a xlink:href="classtgs_1_1objects_1_1effects_1_1ColorEffect.html" target="_top" xlink:title="tgs.objects.effects.Color\lEffect">
<polygon fill="#ffffff" stroke="#000000" points="333,-1833 333,-1863 457,-1863 457,-1833 333,-1833"/>
<text text-anchor="start" x="341" y="-1851" font-family="Helvetica,sans-Serif" font-size="10.00" fill="#000000">tgs.objects.effects.Color</text>
<text text-anchor="middle" x="395" y="-1840" font-family="Helvetica,sans-Serif" font-size="10.00" fill="#000000">Effect</text>
</a>
</g>
</g>
<!-- Node0&#45;&gt;Node6 -->
<g id="edge6" class="edge">
<title>Node0&#45;&gt;Node6</title>
<path fill="none" stroke="#191970" d="M213.6282,-983.8522C220.7595,-1106.4184 261.0835,-1757.1547 317,-1824 321.3635,-1829.2163 326.8329,-1833.3203 332.84,-1836.5456"/>
<polygon fill="#191970" stroke="#191970" points="217.1114,-983.4593 213.0423,-973.6771 210.123,-983.8618 217.1114,-983.4593"/>
</g>
<!-- Node7 -->
<g id="node8" class="node">
<title>Node7</title>
<g id="a_node8"><a xlink:href="classtgs_1_1objects_1_1effects_1_1DropDownEffect.html" target="_top" xlink:title="tgs.objects.effects.Drop\lDownEffect">
<polygon fill="#ffffff" stroke="#000000" points="334,-1784 334,-1814 456,-1814 456,-1784 334,-1784"/>
<text text-anchor="start" x="342" y="-1802" font-family="Helvetica,sans-Serif" font-size="10.00" fill="#000000">tgs.objects.effects.Drop</text>
<text text-anchor="middle" x="395" y="-1791" font-family="Helvetica,sans-Serif" font-size="10.00" fill="#000000">DownEffect</text>
</a>
</g>
</g>
<!-- Node0&#45;&gt;Node7 -->
<g id="edge7" class="edge">
<title>Node0&#45;&gt;Node7</title>
<path fill="none" stroke="#191970" d="M213.778,-983.8127C221.5748,-1102.1242 264.1581,-1712.2922 317,-1775 321.5649,-1780.4172 327.3221,-1784.6338 333.6317,-1787.9122"/>
<polygon fill="#191970" stroke="#191970" points="217.2598,-983.4188 213.1157,-973.668 210.2747,-983.8748 217.2598,-983.4188"/>
</g>
<!-- Node8 -->
<g id="node9" class="node">
<title>Node8</title>
<g id="a_node9"><a xlink:href="classtgs_1_1objects_1_1effects_1_1FillEffect.html" target="_top" xlink:title="tgs.objects.effects.Fill\lEffect">
<polygon fill="#ffffff" stroke="#000000" points="338.5,-1735 338.5,-1765 451.5,-1765 451.5,-1735 338.5,-1735"/>
<text text-anchor="start" x="346.5" y="-1753" font-family="Helvetica,sans-Serif" font-size="10.00" fill="#000000">tgs.objects.effects.Fill</text>
<text text-anchor="middle" x="395" y="-1742" font-family="Helvetica,sans-Serif" font-size="10.00" fill="#000000">Effect</text>
</a>
</g>
</g>
<!-- Node0&#45;&gt;Node8 -->
<g id="edge8" class="edge">
<title>Node0&#45;&gt;Node8</title>
<path fill="none" stroke="#191970" d="M213.9387,-983.6673C222.4184,-1097.3576 267.2122,-1667.4022 317,-1726 322.6878,-1732.6942 330.1956,-1737.5537 338.3083,-1741.0744"/>
<polygon fill="#191970" stroke="#191970" points="217.4228,-983.3224 213.1948,-973.6077 210.4419,-983.8387 217.4228,-983.3224"/>
</g>
<!-- Node9 -->
<g id="node10" class="node">
<title>Node9</title>
<g id="a_node10"><a xlink:href="classtgs_1_1objects_1_1effects_1_1GroupEffect.html" target="_top" xlink:title="tgs.objects.effects.Group\lEffect">
<polygon fill="#ffffff" stroke="#000000" points="331.5,-1686 331.5,-1716 458.5,-1716 458.5,-1686 331.5,-1686"/>
<text text-anchor="start" x="339.5" y="-1704" font-family="Helvetica,sans-Serif" font-size="10.00" fill="#000000">tgs.objects.effects.Group</text>
<text text-anchor="middle" x="395" y="-1693" font-family="Helvetica,sans-Serif" font-size="10.00" fill="#000000">Effect</text>
</a>
</g>
</g>
<!-- Node0&#45;&gt;Node9 -->
<g id="edge9" class="edge">
<title>Node0&#45;&gt;Node9</title>
<path fill="none" stroke="#191970" d="M212.6454,-983.8996C213.8028,-1087.9489 224.1702,-1568.7613 317,-1677 321.0584,-1681.732 326.0259,-1685.5464 331.4702,-1688.6188"/>
<polygon fill="#191970" stroke="#191970" points="216.1446,-983.7923 212.5502,-973.8259 209.1449,-983.8586 216.1446,-983.7923"/>
</g>
<!-- Node10 -->
<g id="node11" class="node">
<title>Node10</title>
<g id="a_node11"><a xlink:href="classtgs_1_1objects_1_1effects_1_1LayerEffect.html" target="_top" xlink:title="tgs.objects.effects.Layer\lEffect">
<polygon fill="#ffffff" stroke="#000000" points="332.5,-1637 332.5,-1667 457.5,-1667 457.5,-1637 332.5,-1637"/>
<text text-anchor="start" x="340.5" y="-1655" font-family="Helvetica,sans-Serif" font-size="10.00" fill="#000000">tgs.objects.effects.Layer</text>
<text text-anchor="middle" x="395" y="-1644" font-family="Helvetica,sans-Serif" font-size="10.00" fill="#000000">Effect</text>
</a>
</g>
</g>
<!-- Node0&#45;&gt;Node10 -->
<g id="edge10" class="edge">
<title>Node0&#45;&gt;Node10</title>
<path fill="none" stroke="#191970" d="M212.8789,-983.7638C215.1774,-1083.1958 230.2387,-1527.9126 317,-1628 321.269,-1632.9246 326.5222,-1636.8544 332.2681,-1639.9878"/>
<polygon fill="#191970" stroke="#191970" points="216.3751,-983.5427 212.6622,-973.6197 209.3767,-983.6922 216.3751,-983.5427"/>
</g>
<!-- Node11 -->
<g id="node12" class="node">
<title>Node11</title>
<g id="a_node12"><a xlink:href="classtgs_1_1objects_1_1effects_1_1PointEffect.html" target="_top" xlink:title="tgs.objects.effects.Point\lEffect">
<polygon fill="#ffffff" stroke="#000000" points="333.5,-1588 333.5,-1618 456.5,-1618 456.5,-1588 333.5,-1588"/>
<text text-anchor="start" x="341.5" y="-1606" font-family="Helvetica,sans-Serif" font-size="10.00" fill="#000000">tgs.objects.effects.Point</text>
<text text-anchor="middle" x="395" y="-1595" font-family="Helvetica,sans-Serif" font-size="10.00" fill="#000000">Effect</text>
</a>
</g>
</g>
<!-- Node0&#45;&gt;Node11 -->
<g id="edge11" class="edge">
<title>Node0&#45;&gt;Node11</title>
<path fill="none" stroke="#191970" d="M213.1623,-984.085C216.7088,-1079.6162 236.4224,-1487.1848 317,-1579 321.5793,-1584.218 327.2632,-1588.3177 333.4612,-1591.5361"/>
<polygon fill="#191970" stroke="#191970" points="216.6502,-983.6758 212.7997,-973.8055 209.6545,-983.9227 216.6502,-983.6758"/>
</g>
<!-- Node12 -->
<g id="node13" class="node">
<title>Node12</title>
<g id="a_node13"><a xlink:href="classtgs_1_1objects_1_1effects_1_1ProLevelsEffect.html" target="_top" xlink:title="tgs.objects.effects.ProLevels\lEffect">
<polygon fill="#ffffff" stroke="#000000" points="323,-1539 323,-1569 467,-1569 467,-1539 323,-1539"/>
<text text-anchor="start" x="331" y="-1557" font-family="Helvetica,sans-Serif" font-size="10.00" fill="#000000">tgs.objects.effects.ProLevels</text>
<text text-anchor="middle" x="395" y="-1546" font-family="Helvetica,sans-Serif" font-size="10.00" fill="#000000">Effect</text>
</a>
</g>
</g>
<!-- Node0&#45;&gt;Node12 -->
<g id="edge12" class="edge">
<title>Node0&#45;&gt;Node12</title>
<path fill="none" stroke="#191970" d="M213.4757,-983.9126C218.3007,-1074.4269 242.4473,-1446.2621 317,-1530 320.0148,-1533.3862 323.4946,-1536.3009 327.2762,-1538.809"/>
<polygon fill="#191970" stroke="#191970" points="216.9692,-983.6941 212.9602,-973.8871 209.9784,-984.0537 216.9692,-983.6941"/>
</g>
<!-- Node13 -->
<g id="node14" class="node">
<title>Node13</title>
<g id="a_node14"><a xlink:href="classtgs_1_1objects_1_1effects_1_1SliderEffect.html" target="_top" xlink:title="tgs.objects.effects.Slider\lEffect">
<polygon fill="#ffffff" stroke="#000000" points="332.5,-1490 332.5,-1520 457.5,-1520 457.5,-1490 332.5,-1490"/>
<text text-anchor="start" x="340.5" y="-1508" font-family="Helvetica,sans-Serif" font-size="10.00" fill="#000000">tgs.objects.effects.Slider</text>
<text text-anchor="middle" x="395" y="-1497" font-family="Helvetica,sans-Serif" font-size="10.00" fill="#000000">Effect</text>
</a>
</g>
</g>
<!-- Node0&#45;&gt;Node13 -->
<g id="edge13" class="edge">
<title>Node0&#45;&gt;Node13</title>
<path fill="none" stroke="#191970" d="M213.8652,-984.0607C220.0969,-1069.907 248.5388,-1405.3976 317,-1481 321.3747,-1485.831 326.6956,-1489.7007 332.4815,-1492.7987"/>
<polygon fill="#191970" stroke="#191970" points="217.3403,-983.5835 213.1449,-973.8547 210.3577,-984.0764 217.3403,-983.5835"/>
</g>
<!-- Node14 -->
<g id="node15" class="node">
<title>Node14</title>
<g id="a_node15"><a xlink:href="classtgs_1_1objects_1_1effects_1_1StrokeEffect.html" target="_top" xlink:title="tgs.objects.effects.Stroke\lEffect">
<polygon fill="#ffffff" stroke="#000000" points="330.5,-1441 330.5,-1471 459.5,-1471 459.5,-1441 330.5,-1441"/>
<text text-anchor="start" x="338.5" y="-1459" font-family="Helvetica,sans-Serif" font-size="10.00" fill="#000000">tgs.objects.effects.Stroke</text>
<text text-anchor="middle" x="395" y="-1448" font-family="Helvetica,sans-Serif" font-size="10.00" fill="#000000">Effect</text>
</a>
</g>
</g>
<!-- Node0&#45;&gt;Node14 -->
<g id="edge14" class="edge">
<title>Node0&#45;&gt;Node14</title>
<path fill="none" stroke="#191970" d="M214.3116,-983.9264C222.012,-1064.4082 254.5295,-1364.4013 317,-1432 320.8464,-1436.1621 325.3951,-1439.6095 330.3327,-1442.464"/>
<polygon fill="#191970" stroke="#191970" points="217.7711,-983.3291 213.355,-973.6986 210.8016,-983.9811 217.7711,-983.3291"/>
</g>
<!-- Node15 -->
<g id="node16" class="node">
<title>Node15</title>
<g id="a_node16"><a xlink:href="classtgs_1_1objects_1_1effects_1_1TintEffect.html" target="_top" xlink:title="tgs.objects.effects.Tint\lEffect">
<polygon fill="#ffffff" stroke="#000000" points="336.5,-1392 336.5,-1422 453.5,-1422 453.5,-1392 336.5,-1392"/>
<text text-anchor="start" x="344.5" y="-1410" font-family="Helvetica,sans-Serif" font-size="10.00" fill="#000000">tgs.objects.effects.Tint</text>
<text text-anchor="middle" x="395" y="-1399" font-family="Helvetica,sans-Serif" font-size="10.00" fill="#000000">Effect</text>
</a>
</g>
</g>
<!-- Node0&#45;&gt;Node15 -->
<g id="edge15" class="edge">
<title>Node0&#45;&gt;Node15</title>
<path fill="none" stroke="#191970" d="M214.8485,-983.7413C224.1228,-1058.5454 260.4786,-1323.3361 317,-1383 322.3591,-1388.6571 329.0158,-1392.9912 336.1652,-1396.3097"/>
<polygon fill="#191970" stroke="#191970" points="218.3183,-983.2803 213.6352,-973.7766 211.3696,-984.1264 218.3183,-983.2803"/>
</g>
<!-- Node16 -->
<g id="node17" class="node">
<title>Node16</title>
<g id="a_node17"><a xlink:href="classtgs_1_1objects_1_1effects_1_1TritoneEffect.html" target="_top" xlink:title="tgs.objects.effects.Tritone\lEffect">
<polygon fill="#ffffff" stroke="#000000" points="329.5,-1343 329.5,-1373 460.5,-1373 460.5,-1343 329.5,-1343"/>
<text text-anchor="start" x="337.5" y="-1361" font-family="Helvetica,sans-Serif" font-size="10.00" fill="#000000">tgs.objects.effects.Tritone</text>
<text text-anchor="middle" x="395" y="-1350" font-family="Helvetica,sans-Serif" font-size="10.00" fill="#000000">Effect</text>
</a>
</g>
</g>
<!-- Node0&#45;&gt;Node16 -->
<g id="edge16" class="edge">
<title>Node0&#45;&gt;Node16</title>
<path fill="none" stroke="#191970" d="M215.5533,-983.5379C226.647,-1052.1985 266.8161,-1281.07 317,-1333 320.7551,-1336.8858 325.114,-1340.1688 329.8148,-1342.9424"/>
<polygon fill="#191970" stroke="#191970" points="219.0029,-982.944 213.9742,-973.6186 212.09,-984.0446 219.0029,-982.944"/>
</g>
<!-- Node17 -->
<g id="node18" class="node">
<title>Node17</title>
<g id="a_node18"><a xlink:href="classtgs_1_1objects_1_1helpers_1_1Mask.html" target="_top" xlink:title="tgs.objects.helpers.Mask">
<polygon fill="#ffffff" stroke="#000000" points="332,-1304.5 332,-1323.5 458,-1323.5 458,-1304.5 332,-1304.5"/>
<text text-anchor="middle" x="395" y="-1311.5" font-family="Helvetica,sans-Serif" font-size="10.00" fill="#000000">tgs.objects.helpers.Mask</text>
</a>
</g>
</g>
<!-- Node0&#45;&gt;Node17 -->
<g id="edge17" class="edge">
<title>Node0&#45;&gt;Node17</title>
<path fill="none" stroke="#191970" d="M216.1074,-983.6918C228.2865,-1048.0888 269.7723,-1250.8294 317,-1295 321.3771,-1299.0938 326.4844,-1302.3484 331.9532,-1304.9302"/>
<polygon fill="#191970" stroke="#191970" points="219.5093,-982.8419 214.2357,-973.6528 212.6279,-984.1249 219.5093,-982.8419"/>
</g>
<!-- Node18 -->
<g id="node19" class="node">
<title>Node18</title>
<g id="a_node19"><a xlink:href="classtgs_1_1objects_1_1helpers_1_1Transform.html" target="_top" xlink:title="tgs.objects.helpers.Transform">
<polygon fill="#ffffff" stroke="#000000" points="322,-1266.5 322,-1285.5 468,-1285.5 468,-1266.5 322,-1266.5"/>
<text text-anchor="middle" x="395" y="-1273.5" font-family="Helvetica,sans-Serif" font-size="10.00" fill="#000000">tgs.objects.helpers.Transform</text>
</a>
</g>
</g>
<!-- Node0&#45;&gt;Node18 -->
<g id="edge18" class="edge">
<title>Node0&#45;&gt;Node18</title>
<path fill="none" stroke="#191970" d="M213.3786,-983.6457C216.8394,-1036.3691 233.8447,-1182.0465 317,-1257 321.2446,-1260.826 326.1303,-1263.9138 331.3429,-1266.4017"/>
<polygon fill="#191970" stroke="#191970" points="216.87,-983.3939 212.8147,-973.6059 209.881,-983.7865 216.87,-983.3939"/>
</g>
<!-- Node19 -->
<g id="node20" class="node">
<title>Node19</title>
<g id="a_node20"><a xlink:href="classtgs_1_1objects_1_1layers_1_1ImageLayer.html" target="_top" xlink:title="tgs.objects.layers.Image\lLayer">
<polygon fill="#ffffff" stroke="#000000" points="333,-1217 333,-1247 457,-1247 457,-1217 333,-1217"/>
<text text-anchor="start" x="341" y="-1235" font-family="Helvetica,sans-Serif" font-size="10.00" fill="#000000">tgs.objects.layers.Image</text>
<text text-anchor="middle" x="395" y="-1224" font-family="Helvetica,sans-Serif" font-size="10.00" fill="#000000">Layer</text>
</a>
</g>
</g>
<!-- Node0&#45;&gt;Node19 -->
<g id="edge19" class="edge">
<title>Node0&#45;&gt;Node19</title>
<path fill="none" stroke="#191970" d="M215.3342,-983.6239C222.9956,-1029.5147 248.372,-1144.6609 317,-1207 321.6314,-1211.207 326.975,-1214.7064 332.6491,-1217.6171"/>
<polygon fill="#191970" stroke="#191970" points="218.7575,-982.8614 213.7525,-973.5233 211.8418,-983.9444 218.7575,-982.8614"/>
</g>
<!-- Node20 -->
<g id="node21" class="node">
<title>Node20</title>
<g id="a_node21"><a xlink:href="classtgs_1_1objects_1_1layers_1_1NullLayer.html" target="_top" xlink:title="tgs.objects.layers.NullLayer">
<polygon fill="#ffffff" stroke="#000000" points="326,-1178.5 326,-1197.5 464,-1197.5 464,-1178.5 326,-1178.5"/>
<text text-anchor="middle" x="395" y="-1185.5" font-family="Helvetica,sans-Serif" font-size="10.00" fill="#000000">tgs.objects.layers.NullLayer</text>
</a>
</g>
</g>
<!-- Node0&#45;&gt;Node20 -->
<g id="edge20" class="edge">
<title>Node0&#45;&gt;Node20</title>
<path fill="none" stroke="#191970" d="M216.6289,-983.3317C226.4168,-1024.2712 255.0052,-1119.9695 317,-1169 321.9194,-1172.8906 327.5194,-1176.0005 333.4088,-1178.484"/>
<polygon fill="#191970" stroke="#191970" points="220.0304,-982.505 214.3996,-973.5303 213.2047,-984.0575 220.0304,-982.505"/>
</g>
<!-- Node21 -->
<g id="node22" class="node">
<title>Node21</title>
<g id="a_node22"><a xlink:href="classtgs_1_1objects_1_1layers_1_1PreCompLayer.html" target="_top" xlink:title="tgs.objects.layers.PreComp\lLayer">
<polygon fill="#ffffff" stroke="#000000" points="326,-1129 326,-1159 464,-1159 464,-1129 326,-1129"/>
<text text-anchor="start" x="334" y="-1147" font-family="Helvetica,sans-Serif" font-size="10.00" fill="#000000">tgs.objects.layers.PreComp</text>
<text text-anchor="middle" x="395" y="-1136" font-family="Helvetica,sans-Serif" font-size="10.00" fill="#000000">Layer</text>
</a>
</g>
</g>
<!-- Node0&#45;&gt;Node21 -->
<g id="edge21" class="edge">
<title>Node0&#45;&gt;Node21</title>
<path fill="none" stroke="#191970" d="M220.1607,-983.1213C234.3103,-1016.0163 267.6725,-1083.3089 317,-1120 321.6609,-1123.4669 326.8296,-1126.439 332.2239,-1128.9857"/>
<polygon fill="#191970" stroke="#191970" points="223.3248,-981.6151 216.2459,-973.7322 216.8639,-984.309 223.3248,-981.6151"/>
</g>
<!-- Node22 -->
<g id="node23" class="node">
<title>Node22</title>
<g id="a_node23"><a xlink:href="classtgs_1_1objects_1_1layers_1_1ShapeLayer.html" target="_top" xlink:title="tgs.objects.layers.Shape\lLayer">
<polygon fill="#ffffff" stroke="#000000" points="332.5,-1080 332.5,-1110 457.5,-1110 457.5,-1080 332.5,-1080"/>
<text text-anchor="start" x="340.5" y="-1098" font-family="Helvetica,sans-Serif" font-size="10.00" fill="#000000">tgs.objects.layers.Shape</text>
<text text-anchor="middle" x="395" y="-1087" font-family="Helvetica,sans-Serif" font-size="10.00" fill="#000000">Layer</text>
</a>
</g>
</g>
<!-- Node0&#45;&gt;Node22 -->
<g id="edge22" class="edge">
<title>Node0&#45;&gt;Node22</title>
<path fill="none" stroke="#191970" d="M225.1687,-981.659C243.0448,-1005.3323 277.8873,-1047.1349 317,-1071 322.5635,-1074.3946 328.6461,-1077.3442 334.8815,-1079.8991"/>
<polygon fill="#191970" stroke="#191970" points="227.933,-979.5105 219.1747,-973.5488 222.3036,-983.6711 227.933,-979.5105"/>
</g>
<!-- Node23 -->
<g id="node24" class="node">
<title>Node23</title>
<g id="a_node24"><a xlink:href="classtgs_1_1objects_1_1layers_1_1SolidLayer.html" target="_top" xlink:title="tgs.objects.layers.Solid\lLayer">
<polygon fill="#ffffff" stroke="#000000" points="335.5,-1031 335.5,-1061 454.5,-1061 454.5,-1031 335.5,-1031"/>
<text text-anchor="start" x="343.5" y="-1049" font-family="Helvetica,sans-Serif" font-size="10.00" fill="#000000">tgs.objects.layers.Solid</text>
<text text-anchor="middle" x="395" y="-1038" font-family="Helvetica,sans-Serif" font-size="10.00" fill="#000000">Layer</text>
</a>
</g>
</g>
<!-- Node0&#45;&gt;Node23 -->
<g id="edge23" class="edge">
<title>Node0&#45;&gt;Node23</title>
<path fill="none" stroke="#191970" d="M236.7466,-978.9402C257.5166,-991.3161 288.5017,-1008.791 317,-1021 325.3656,-1024.5839 334.4234,-1027.9384 343.3044,-1030.9541"/>
<polygon fill="#191970" stroke="#191970" points="238.3396,-975.8138 227.968,-973.6501 234.7265,-981.8094 238.3396,-975.8138"/>
</g>
<!-- Node24 -->
<g id="node25" class="node">
<title>Node24</title>
<g id="a_node25"><a xlink:href="classtgs_1_1objects_1_1layers_1_1TextLayer.html" target="_top" xlink:title="tgs.objects.layers.TextLayer">
<polygon fill="#ffffff" stroke="#000000" points="325,-992.5 325,-1011.5 465,-1011.5 465,-992.5 325,-992.5"/>
<text text-anchor="middle" x="395" y="-999.5" font-family="Helvetica,sans-Serif" font-size="10.00" fill="#000000">tgs.objects.layers.TextLayer</text>
</a>
</g>
</g>
<!-- Node0&#45;&gt;Node24 -->
<g id="edge24" class="edge">
<title>Node0&#45;&gt;Node24</title>
<path fill="none" stroke="#191970" d="M268.5995,-975.681C294.4804,-981.0699 324.8146,-987.3861 349.2787,-992.4799"/>
<polygon fill="#191970" stroke="#191970" points="269.056,-972.201 258.5525,-973.589 267.629,-979.0541 269.056,-972.201"/>
</g>
<!-- Node25 -->
<g id="node26" class="node">
<title>Node25</title>
<g id="a_node26"><a xlink:href="classtgs_1_1objects_1_1properties_1_1Bezier.html" target="_top" xlink:title="tgs.objects.properties.Bezier">
<polygon fill="#ffffff" stroke="#000000" points="324.5,-954.5 324.5,-973.5 465.5,-973.5 465.5,-954.5 324.5,-954.5"/>
<text text-anchor="middle" x="395" y="-961.5" font-family="Helvetica,sans-Serif" font-size="10.00" fill="#000000">tgs.objects.properties.Bezier</text>
</a>
</g>
</g>
<!-- Node0&#45;&gt;Node25 -->
<g id="edge25" class="edge">
<title>Node0&#45;&gt;Node25</title>
<path fill="none" stroke="#191970" d="M291.5528,-964C302.4103,-964 313.5025,-964 324.1994,-964"/>
<polygon fill="#191970" stroke="#191970" points="291.2354,-960.5001 281.2354,-964 291.2353,-967.5001 291.2354,-960.5001"/>
</g>
<!-- Node26 -->
<g id="node27" class="node">
<title>Node26</title>
<g id="a_node27"><a xlink:href="classtgs_1_1objects_1_1properties_1_1GradientColors.html" target="_top" xlink:title="tgs.objects.properties.Gradient\lColors">
<polygon fill="#ffffff" stroke="#000000" points="320,-905 320,-935 470,-935 470,-905 320,-905"/>
<text text-anchor="start" x="328" y="-923" font-family="Helvetica,sans-Serif" font-size="10.00" fill="#000000">tgs.objects.properties.Gradient</text>
<text text-anchor="middle" x="395" y="-912" font-family="Helvetica,sans-Serif" font-size="10.00" fill="#000000">Colors</text>
</a>
</g>
</g>
<!-- Node0&#45;&gt;Node26 -->
<g id="edge26" class="edge">
<title>Node0&#45;&gt;Node26</title>
<path fill="none" stroke="#191970" d="M262.0862,-952.045C283.796,-946.8108 309.5124,-940.6107 332.513,-935.0654"/>
<polygon fill="#191970" stroke="#191970" points="261.0009,-948.7063 252.0998,-954.4527 262.6416,-955.5113 261.0009,-948.7063"/>
</g>
<!-- Node27 -->
<g id="node28" class="node">
<title>Node27</title>
<g id="a_node28"><a xlink:href="classtgs_1_1objects_1_1properties_1_1MultiDimensional.html" target="_top" xlink:title="tgs.objects.properties.Multi\lDimensional">
<polygon fill="#ffffff" stroke="#000000" points="328,-856 328,-886 462,-886 462,-856 328,-856"/>
<text text-anchor="start" x="336" y="-874" font-family="Helvetica,sans-Serif" font-size="10.00" fill="#000000">tgs.objects.properties.Multi</text>
<text text-anchor="middle" x="395" y="-863" font-family="Helvetica,sans-Serif" font-size="10.00" fill="#000000">Dimensional</text>
</a>
</g>
</g>
<!-- Node0&#45;&gt;Node27 -->
<g id="edge27" class="edge">
<title>Node0&#45;&gt;Node27</title>
<path fill="none" stroke="#191970" d="M232.853,-948.0101C253.1893,-932.666 285.8311,-909.7132 317,-895 324.0468,-891.6736 331.6661,-888.6687 339.2864,-886.0007"/>
<polygon fill="#191970" stroke="#191970" points="230.4891,-945.4119 224.6778,-954.2708 234.7451,-950.9694 230.4891,-945.4119"/>
</g>
<!-- Node28 -->
<g id="node29" class="node">
<title>Node28</title>
<g id="a_node29"><a xlink:href="classtgs_1_1objects_1_1properties_1_1OffsetKeyframe.html" target="_top" xlink:title="tgs.objects.properties.Offset\lKeyframe">
<polygon fill="#ffffff" stroke="#000000" points="325,-807 325,-837 465,-837 465,-807 325,-807"/>
<text text-anchor="start" x="333" y="-825" font-family="Helvetica,sans-Serif" font-size="10.00" fill="#000000">tgs.objects.properties.Offset</text>
<text text-anchor="middle" x="395" y="-814" font-family="Helvetica,sans-Serif" font-size="10.00" fill="#000000">Keyframe</text>
</a>
</g>
</g>
<!-- Node0&#45;&gt;Node28 -->
<g id="edge28" class="edge">
<title>Node0&#45;&gt;Node28</title>
<path fill="none" stroke="#191970" d="M223.7396,-945.9874C240.7864,-920.1253 275.6124,-872.6596 317,-846 322.2408,-842.6241 327.9843,-839.6997 333.9029,-837.1714"/>
<polygon fill="#191970" stroke="#191970" points="220.7555,-944.1569 218.2844,-954.4596 226.641,-947.9466 220.7555,-944.1569"/>
</g>
<!-- Node29 -->
<g id="node30" class="node">
<title>Node29</title>
<g id="a_node30"><a xlink:href="classtgs_1_1objects_1_1properties_1_1ShapeProperty.html" target="_top" xlink:title="tgs.objects.properties.Shape\lProperty">
<polygon fill="#ffffff" stroke="#000000" points="324.5,-758 324.5,-788 465.5,-788 465.5,-758 324.5,-758"/>
<text text-anchor="start" x="332.5" y="-776" font-family="Helvetica,sans-Serif" font-size="10.00" fill="#000000">tgs.objects.properties.Shape</text>
<text text-anchor="middle" x="395" y="-765" font-family="Helvetica,sans-Serif" font-size="10.00" fill="#000000">Property</text>
</a>
</g>
</g>
<!-- Node0&#45;&gt;Node29 -->
<g id="edge29" class="edge">
<title>Node0&#45;&gt;Node29</title>
<path fill="none" stroke="#191970" d="M219.2254,-944.9846C232.4486,-910.3392 265.1381,-836.8429 317,-797 321.4942,-793.5474 326.4882,-790.5877 331.7161,-788.0514"/>
<polygon fill="#191970" stroke="#191970" points="215.9261,-943.8158 215.7469,-954.4091 222.493,-946.2396 215.9261,-943.8158"/>
</g>
<!-- Node30 -->
<g id="node31" class="node">
<title>Node30</title>
<g id="a_node31"><a xlink:href="classtgs_1_1objects_1_1properties_1_1ShapePropKeyframe.html" target="_top" xlink:title="tgs.objects.properties.Shape\lPropKeyframe">
<polygon fill="#ffffff" stroke="#000000" points="324.5,-709 324.5,-739 465.5,-739 465.5,-709 324.5,-709"/>
<text text-anchor="start" x="332.5" y="-727" font-family="Helvetica,sans-Serif" font-size="10.00" fill="#000000">tgs.objects.properties.Shape</text>
<text text-anchor="middle" x="395" y="-716" font-family="Helvetica,sans-Serif" font-size="10.00" fill="#000000">PropKeyframe</text>
</a>
</g>
</g>
<!-- Node0&#45;&gt;Node30 -->
<g id="edge30" class="edge">
<title>Node0&#45;&gt;Node30</title>
<path fill="none" stroke="#191970" d="M216.4829,-944.2155C226.0475,-901.84 254.3241,-801.8007 317,-748 320.9777,-744.5855 325.435,-741.6567 330.1502,-739.1445"/>
<polygon fill="#191970" stroke="#191970" points="213.0335,-943.6082 214.3558,-954.1202 219.8775,-945.0781 213.0335,-943.6082"/>
</g>
<!-- Node31 -->
<g id="node32" class="node">
<title>Node31</title>
<g id="a_node32"><a xlink:href="classtgs_1_1objects_1_1properties_1_1Value.html" target="_top" xlink:title="tgs.objects.properties.Value">
<polygon fill="#ffffff" stroke="#000000" points="326,-670.5 326,-689.5 464,-689.5 464,-670.5 326,-670.5"/>
<text text-anchor="middle" x="395" y="-677.5" font-family="Helvetica,sans-Serif" font-size="10.00" fill="#000000">tgs.objects.properties.Value</text>
</a>
</g>
</g>
<!-- Node0&#45;&gt;Node31 -->
<g id="edge31" class="edge">
<title>Node0&#45;&gt;Node31</title>
<path fill="none" stroke="#191970" d="M214.2255,-944.2579C219.6317,-894.9273 240.7457,-765.4843 317,-699 321.4123,-695.1531 326.4762,-692.057 331.8593,-689.5689"/>
<polygon fill="#191970" stroke="#191970" points="210.7378,-943.9621 213.2295,-954.2598 217.7033,-944.6559 210.7378,-943.9621"/>
</g>
<!-- Node32 -->
<g id="node33" class="node">
<title>Node32</title>
<g id="a_node33"><a xlink:href="classtgs_1_1objects_1_1shapes_1_1Ellipse.html" target="_top" xlink:title="tgs.objects.shapes.Ellipse">
<polygon fill="#ffffff" stroke="#000000" points="329.5,-632.5 329.5,-651.5 460.5,-651.5 460.5,-632.5 329.5,-632.5"/>
<text text-anchor="middle" x="395" y="-639.5" font-family="Helvetica,sans-Serif" font-size="10.00" fill="#000000">tgs.objects.shapes.Ellipse</text>
</a>
</g>
</g>
<!-- Node0&#45;&gt;Node32 -->
<g id="edge32" class="edge">
<title>Node0&#45;&gt;Node32</title>
<path fill="none" stroke="#191970" d="M216.6918,-944.3969C230.038,-883.7495 273.2394,-700.862 317,-661 321.2245,-657.1518 326.0965,-654.049 331.3004,-651.5513"/>
<polygon fill="#191970" stroke="#191970" points="213.257,-943.7214 214.5538,-954.2365 220.0974,-945.2077 213.257,-943.7214"/>
</g>
<!-- Node33 -->
<g id="node34" class="node">
<title>Node33</title>
<g id="a_node34"><a xlink:href="classtgs_1_1objects_1_1shapes_1_1Fill.html" target="_top" xlink:title="tgs.objects.shapes.Fill">
<polygon fill="#ffffff" stroke="#000000" points="337.5,-594.5 337.5,-613.5 452.5,-613.5 452.5,-594.5 337.5,-594.5"/>
<text text-anchor="middle" x="395" y="-601.5" font-family="Helvetica,sans-Serif" font-size="10.00" fill="#000000">tgs.objects.shapes.Fill</text>
</a>
</g>
</g>
<!-- Node0&#45;&gt;Node33 -->
<g id="edge33" class="edge">
<title>Node0&#45;&gt;Node33</title>
<path fill="none" stroke="#191970" d="M215.9425,-944.1551C227.7495,-878.3169 268.5589,-668.6904 317,-623 322.7793,-617.5489 329.8519,-613.5833 337.3554,-610.712"/>
<polygon fill="#191970" stroke="#191970" points="212.4271,-943.9361 214.134,-954.3925 219.3203,-945.1539 212.4271,-943.9361"/>
</g>
<!-- Node34 -->
<g id="node35" class="node">
<title>Node34</title>
<g id="a_node35"><a xlink:href="classtgs_1_1objects_1_1shapes_1_1GradientFill.html" target="_top" xlink:title="tgs.objects.shapes.GradientFill">
<polygon fill="#ffffff" stroke="#000000" points="319,-556.5 319,-575.5 471,-575.5 471,-556.5 319,-556.5"/>
<text text-anchor="middle" x="395" y="-563.5" font-family="Helvetica,sans-Serif" font-size="10.00" fill="#000000">tgs.objects.shapes.GradientFill</text>
</a>
</g>
</g>
<!-- Node0&#45;&gt;Node34 -->
<g id="edge34" class="edge">
<title>Node0&#45;&gt;Node34</title>
<path fill="none" stroke="#191970" d="M215.2797,-944.2702C225.5816,-873.8994 263.7552,-636.6655 317,-585 320.901,-581.2147 325.4237,-578.1417 330.2881,-575.652"/>
<polygon fill="#191970" stroke="#191970" points="211.7806,-944.014 213.8206,-954.4106 218.7092,-945.0111 211.7806,-944.014"/>
</g>
<!-- Node35 -->
<g id="node36" class="node">
<title>Node35</title>
<g id="a_node36"><a xlink:href="classtgs_1_1objects_1_1shapes_1_1GradientStroke.html" target="_top" xlink:title="tgs.objects.shapes.Gradient\lStroke">
<polygon fill="#ffffff" stroke="#000000" points="325.5,-507 325.5,-537 464.5,-537 464.5,-507 325.5,-507"/>
<text text-anchor="start" x="333.5" y="-525" font-family="Helvetica,sans-Serif" font-size="10.00" fill="#000000">tgs.objects.shapes.Gradient</text>
<text text-anchor="middle" x="395" y="-514" font-family="Helvetica,sans-Serif" font-size="10.00" fill="#000000">Stroke</text>
</a>
</g>
</g>
<!-- Node0&#45;&gt;Node35 -->
<g id="edge35" class="edge">
<title>Node0&#45;&gt;Node35</title>
<path fill="none" stroke="#191970" d="M214.9418,-943.9117C224.4369,-868.9151 261.1614,-606.5691 317,-547 320.5983,-543.1613 324.7858,-539.91 329.3171,-537.1565"/>
<polygon fill="#191970" stroke="#191970" points="211.4134,-943.9244 213.653,-954.2798 218.3599,-944.788 211.4134,-943.9244"/>
</g>
<!-- Node36 -->
<g id="node37" class="node">
<title>Node36</title>
<g id="a_node37"><a xlink:href="classtgs_1_1objects_1_1shapes_1_1Group.html" target="_top" xlink:title="tgs.objects.shapes.Group">
<polygon fill="#ffffff" stroke="#000000" points="331,-468.5 331,-487.5 459,-487.5 459,-468.5 331,-468.5"/>
<text text-anchor="middle" x="395" y="-475.5" font-family="Helvetica,sans-Serif" font-size="10.00" fill="#000000">tgs.objects.shapes.Group</text>
</a>
</g>
</g>
<!-- Node0&#45;&gt;Node36 -->
<g id="edge36" class="edge">
<title>Node0&#45;&gt;Node36</title>
<path fill="none" stroke="#191970" d="M214.2076,-944.0107C221.5028,-863.2903 252.6606,-562.5601 317,-497 321.0026,-492.9215 325.7238,-489.662 330.8307,-487.0639"/>
<polygon fill="#191970" stroke="#191970" points="210.695,-944.001 213.3033,-954.2698 217.6679,-944.6157 210.695,-944.001"/>
</g>
<!-- Node37 -->
<g id="node38" class="node">
<title>Node37</title>
<g id="a_node38"><a xlink:href="classtgs_1_1objects_1_1shapes_1_1Merge.html" target="_top" xlink:title="tgs.objects.shapes.Merge">
<polygon fill="#ffffff" stroke="#000000" points="330.5,-430.5 330.5,-449.5 459.5,-449.5 459.5,-430.5 330.5,-430.5"/>
<text text-anchor="middle" x="395" y="-437.5" font-family="Helvetica,sans-Serif" font-size="10.00" fill="#000000">tgs.objects.shapes.Merge</text>
</a>
</g>
</g>
<!-- Node0&#45;&gt;Node37 -->
<g id="edge37" class="edge">
<title>Node0&#45;&gt;Node37</title>
<path fill="none" stroke="#191970" d="M213.8242,-944.2979C219.8863,-860.0018 247.7279,-530.7318 317,-459 320.8728,-454.9897 325.4396,-451.7687 330.3891,-449.1884"/>
<polygon fill="#191970" stroke="#191970" points="210.3295,-944.1009 213.1244,-954.3204 217.3125,-944.5885 210.3295,-944.1009"/>
</g>
<!-- Node38 -->
<g id="node39" class="node">
<title>Node38</title>
<g id="a_node39"><a xlink:href="classtgs_1_1objects_1_1shapes_1_1Rect.html" target="_top" xlink:title="tgs.objects.shapes.Rect">
<polygon fill="#ffffff" stroke="#000000" points="333.5,-392.5 333.5,-411.5 456.5,-411.5 456.5,-392.5 333.5,-392.5"/>
<text text-anchor="middle" x="395" y="-399.5" font-family="Helvetica,sans-Serif" font-size="10.00" fill="#000000">tgs.objects.shapes.Rect</text>
</a>
</g>
</g>
<!-- Node0&#45;&gt;Node38 -->
<g id="edge38" class="edge">
<title>Node0&#45;&gt;Node38</title>
<path fill="none" stroke="#191970" d="M213.518,-944.2531C218.4664,-856.0253 242.8674,-498.8424 317,-421 321.6137,-416.1554 327.2395,-412.4595 333.3356,-409.652"/>
<polygon fill="#191970" stroke="#191970" points="210.0112,-944.2864 212.9664,-954.4608 217.001,-944.6642 210.0112,-944.2864"/>
</g>
<!-- Node39 -->
<g id="node40" class="node">
<title>Node39</title>
<g id="a_node40"><a xlink:href="classtgs_1_1objects_1_1shapes_1_1Repeater.html" target="_top" xlink:title="tgs.objects.shapes.Repeater">
<polygon fill="#ffffff" stroke="#000000" points="324,-354.5 324,-373.5 466,-373.5 466,-354.5 324,-354.5"/>
<text text-anchor="middle" x="395" y="-361.5" font-family="Helvetica,sans-Serif" font-size="10.00" fill="#000000">tgs.objects.shapes.Repeater</text>
</a>
</g>
</g>
<!-- Node0&#45;&gt;Node39 -->
<g id="edge39" class="edge">
<title>Node0&#45;&gt;Node39</title>
<path fill="none" stroke="#191970" d="M213.2566,-944.0534C217.1643,-851.7419 238.037,-466.9309 317,-383 320.5336,-379.244 324.6752,-376.1769 329.1751,-373.6779"/>
<polygon fill="#191970" stroke="#191970" points="209.7514,-944.1132 212.8451,-954.2463 216.7457,-944.3956 209.7514,-944.1132"/>
</g>
<!-- Node40 -->
<g id="node41" class="node">
<title>Node40</title>
<g id="a_node41"><a xlink:href="classtgs_1_1objects_1_1shapes_1_1Round.html" target="_top" xlink:title="tgs.objects.shapes.Round">
<polygon fill="#ffffff" stroke="#000000" points="329.5,-316.5 329.5,-335.5 460.5,-335.5 460.5,-316.5 329.5,-316.5"/>
<text text-anchor="middle" x="395" y="-323.5" font-family="Helvetica,sans-Serif" font-size="10.00" fill="#000000">tgs.objects.shapes.Round</text>
</a>
</g>
</g>
<!-- Node0&#45;&gt;Node40 -->
<g id="edge40" class="edge">
<title>Node0&#45;&gt;Node40</title>
<path fill="none" stroke="#191970" d="M213.019,-943.9756C215.919,-847.8938 233.1605,-435.0764 317,-345 320.6084,-341.1231 324.8642,-337.9786 329.4957,-335.4343"/>
<polygon fill="#191970" stroke="#191970" points="209.5174,-943.9846 212.7329,-954.0797 216.5146,-944.1828 209.5174,-943.9846"/>
</g>
<!-- Node41 -->
<g id="node42" class="node">
<title>Node41</title>
<g id="a_node42"><a xlink:href="classtgs_1_1objects_1_1shapes_1_1Shape.html" target="_top" xlink:title="tgs.objects.shapes.Shape">
<polygon fill="#ffffff" stroke="#000000" points="330,-278.5 330,-297.5 460,-297.5 460,-278.5 330,-278.5"/>
<text text-anchor="middle" x="395" y="-285.5" font-family="Helvetica,sans-Serif" font-size="10.00" fill="#000000">tgs.objects.shapes.Shape</text>
</a>
</g>
</g>
<!-- Node0&#45;&gt;Node41 -->
<g id="edge41" class="edge">
<title>Node0&#45;&gt;Node41</title>
<path fill="none" stroke="#191970" d="M212.7982,-944.3427C214.7022,-845.4611 228.1407,-403.3844 317,-307 320.6844,-303.0036 325.0565,-299.7838 329.8213,-297.1969"/>
<polygon fill="#191970" stroke="#191970" points="209.2973,-944.3717 212.6223,-954.4313 216.2962,-944.4938 209.2973,-944.3717"/>
</g>
<!-- Node42 -->
<g id="node43" class="node">
<title>Node42</title>
<g id="a_node43"><a xlink:href="classtgs_1_1objects_1_1shapes_1_1Star.html" target="_top" xlink:title="tgs.objects.shapes.Star">
<polygon fill="#ffffff" stroke="#000000" points="335,-240.5 335,-259.5 455,-259.5 455,-240.5 335,-240.5"/>
<text text-anchor="middle" x="395" y="-247.5" font-family="Helvetica,sans-Serif" font-size="10.00" fill="#000000">tgs.objects.shapes.Star</text>
</a>
</g>
</g>
<!-- Node0&#45;&gt;Node42 -->
<g id="edge42" class="edge">
<title>Node0&#45;&gt;Node42</title>
<path fill="none" stroke="#191970" d="M214.1511,-944.3711C223.378,-836.6824 269.8388,-320.593 317,-269 321.8899,-263.6506 328.0115,-259.6904 334.6628,-256.7759"/>
<polygon fill="#191970" stroke="#191970" points="210.6519,-944.2133 213.2925,-954.4738 217.6268,-944.8061 210.6519,-944.2133"/>
</g>
<!-- Node43 -->
<g id="node44" class="node">
<title>Node43</title>
<g id="a_node44"><a xlink:href="classtgs_1_1objects_1_1shapes_1_1Stroke.html" target="_top" xlink:title="tgs.objects.shapes.Stroke">
<polygon fill="#ffffff" stroke="#000000" points="329.5,-202.5 329.5,-221.5 460.5,-221.5 460.5,-202.5 329.5,-202.5"/>
<text text-anchor="middle" x="395" y="-209.5" font-family="Helvetica,sans-Serif" font-size="10.00" fill="#000000">tgs.objects.shapes.Stroke</text>
</a>
</g>
</g>
<!-- Node0&#45;&gt;Node43 -->
<g id="edge43" class="edge">
<title>Node0&#45;&gt;Node43</title>
<path fill="none" stroke="#191970" d="M213.9932,-944.3522C222.614,-833.1481 267.3692,-285.7125 317,-231 320.5584,-227.0772 324.7791,-223.9004 329.387,-221.3344"/>
<polygon fill="#191970" stroke="#191970" points="210.4916,-944.2395 213.2151,-954.4783 217.471,-944.7758 210.4916,-944.2395"/>
</g>
<!-- Node44 -->
<g id="node45" class="node">
<title>Node44</title>
<g id="a_node45"><a xlink:href="classtgs_1_1objects_1_1shapes_1_1TransformShape.html" target="_top" xlink:title="tgs.objects.shapes.Transform\lShape">
<polygon fill="#ffffff" stroke="#000000" points="322,-153 322,-183 468,-183 468,-153 322,-153"/>
<text text-anchor="start" x="330" y="-171" font-family="Helvetica,sans-Serif" font-size="10.00" fill="#000000">tgs.objects.shapes.Transform</text>
<text text-anchor="middle" x="395" y="-160" font-family="Helvetica,sans-Serif" font-size="10.00" fill="#000000">Shape</text>
</a>
</g>
</g>
<!-- Node0&#45;&gt;Node44 -->
<g id="edge44" class="edge">
<title>Node0&#45;&gt;Node44</title>
<path fill="none" stroke="#191970" d="M213.9331,-944.11C222.3816,-829.1314 267.0284,-252.6093 317,-193 320.1975,-189.1859 323.9786,-185.9474 328.124,-183.1984"/>
<polygon fill="#191970" stroke="#191970" points="210.4279,-944.0557 213.192,-954.2835 217.4094,-944.5643 210.4279,-944.0557"/>
</g>
<!-- Node45 -->
<g id="node46" class="node">
<title>Node45</title>
<g id="a_node46"><a xlink:href="classtgs_1_1objects_1_1shapes_1_1Trim.html" target="_top" xlink:title="tgs.objects.shapes.Trim">
<polygon fill="#ffffff" stroke="#000000" points="334,-114.5 334,-133.5 456,-133.5 456,-114.5 334,-114.5"/>
<text text-anchor="middle" x="395" y="-121.5" font-family="Helvetica,sans-Serif" font-size="10.00" fill="#000000">tgs.objects.shapes.Trim</text>
</a>
</g>
</g>
<!-- Node0&#45;&gt;Node45 -->
<g id="edge45" class="edge">
<title>Node0&#45;&gt;Node45</title>
<path fill="none" stroke="#191970" d="M213.6849,-944.2732C221.0105,-825.1596 261.6408,-204.9553 317,-143 321.6433,-137.8034 327.4483,-133.912 333.784,-131.0141"/>
<polygon fill="#191970" stroke="#191970" points="210.1785,-944.2723 213.0645,-954.4664 217.1656,-944.6976 210.1785,-944.2723"/>
</g>
<!-- Node46 -->
<g id="node47" class="node">
<title>Node46</title>
<g id="a_node47"><a xlink:href="classtgs_1_1objects_1_1sources_1_1Chars.html" target="_top" xlink:title="tgs.objects.sources.Chars">
<polygon fill="#ffffff" stroke="#000000" points="329.5,-76.5 329.5,-95.5 460.5,-95.5 460.5,-76.5 329.5,-76.5"/>
<text text-anchor="middle" x="395" y="-83.5" font-family="Helvetica,sans-Serif" font-size="10.00" fill="#000000">tgs.objects.sources.Chars</text>
</a>
</g>
</g>
<!-- Node0&#45;&gt;Node46 -->
<g id="edge46" class="edge">
<title>Node0&#45;&gt;Node46</title>
<path fill="none" stroke="#191970" d="M213.577,-944.1253C220.3992,-821.4262 259.1796,-170.0719 317,-105 320.5179,-101.0409 324.7101,-97.8384 329.2989,-95.2553"/>
<polygon fill="#191970" stroke="#191970" points="210.0713,-944.1346 213.017,-954.3117 217.0608,-944.5189 210.0713,-944.1346"/>
</g>
<!-- Node47 -->
<g id="node48" class="node">
<title>Node47</title>
<g id="a_node48"><a xlink:href="classtgs_1_1objects_1_1sources_1_1Image.html" target="_top" xlink:title="tgs.objects.sources.Image">
<polygon fill="#ffffff" stroke="#000000" points="329,-38.5 329,-57.5 461,-57.5 461,-38.5 329,-38.5"/>
<text text-anchor="middle" x="395" y="-45.5" font-family="Helvetica,sans-Serif" font-size="10.00" fill="#000000">tgs.objects.sources.Image</text>
</a>
</g>
</g>
<!-- Node0&#45;&gt;Node47 -->
<g id="edge47" class="edge">
<title>Node0&#45;&gt;Node47</title>
<path fill="none" stroke="#191970" d="M213.4549,-944.4246C219.7262,-819.3627 256.6445,-135.2735 317,-67 320.4156,-63.1363 324.4732,-59.9926 328.9159,-57.4415"/>
<polygon fill="#191970" stroke="#191970" points="209.9566,-944.3061 212.9574,-954.4671 216.948,-944.6526 209.9566,-944.3061"/>
</g>
<!-- Node48 -->
<g id="node49" class="node">
<title>Node48</title>
<g id="a_node49"><a xlink:href="classtgs_1_1objects_1_1sources_1_1Precomp.html" target="_top" xlink:title="tgs.objects.sources.Precomp">
<polygon fill="#ffffff" stroke="#000000" points="323,-.5 323,-19.5 467,-19.5 467,-.5 323,-.5"/>
<text text-anchor="middle" x="395" y="-7.5" font-family="Helvetica,sans-Serif" font-size="10.00" fill="#000000">tgs.objects.sources.Precomp</text>
</a>
</g>
</g>
<!-- Node0&#45;&gt;Node48 -->
<g id="edge48" class="edge">
<title>Node0&#45;&gt;Node48</title>
<path fill="none" stroke="#191970" d="M213.3769,-944.0039C219.2204,-814.743 254.2222,-100.349 317,-29 320.3145,-25.233 324.2392,-22.1498 328.537,-19.6324"/>
<polygon fill="#191970" stroke="#191970" points="209.8641,-944.2157 212.9149,-954.3617 216.8571,-944.5277 209.8641,-944.2157"/>
</g>
<!-- Node1 -->
<g id="node2" class="node">
<title>Node1</title>
<g id="a_node2"><a xlink:href="classtgs_1_1objects_1_1base_1_1Tgs.html" target="_top" xlink:title="tgs.objects.base.Tgs">
<polygon fill="#ffffff" stroke="#000000" points="0,-954.5 0,-973.5 108,-973.5 108,-954.5 0,-954.5"/>
<text text-anchor="middle" x="54" y="-961.5" font-family="Helvetica,sans-Serif" font-size="10.00" fill="#000000">tgs.objects.base.Tgs</text>
</a>
</g>
</g>
<!-- Node1&#45;&gt;Node0 -->
<g id="edge1" class="edge">
<title>Node1&#45;&gt;Node0</title>
<path fill="none" stroke="#191970" d="M118.2279,-964C126.6456,-964 135.298,-964 143.7863,-964"/>
<polygon fill="#191970" stroke="#191970" points="118.1034,-960.5001 108.1034,-964 118.1034,-967.5001 118.1034,-960.5001"/>
</g>
</g>
</svg>
