<?xml version="1.0" encoding="UTF-8" standalone="no"?>
<!DOCTYPE svg PUBLIC "-//W3C//DTD SVG 1.1//EN"
 "http://www.w3.org/Graphics/SVG/1.1/DTD/svg11.dtd">
<!-- Generated by graphviz version 2.40.1 (20161225.0304)
 -->
<!-- Title: tgs.parsers.svg.handler.SvgHandler Pages: 1 -->
<svg width="270pt" height="106pt"
 viewBox="0.00 0.00 270.00 106.00" xmlns="http://www.w3.org/2000/svg" xmlns:xlink="http://www.w3.org/1999/xlink">
<g id="graph0" class="graph" transform="scale(1 1) rotate(0) translate(4 102)">
<title>tgs.parsers.svg.handler.SvgHandler</title>
<polygon fill="#ffffff" stroke="transparent" points="-4,4 -4,-102 266,-102 266,4 -4,4"/>
<!-- Node0 -->
<g id="node1" class="node">
<title>Node0</title>
<polygon fill="#bfbfbf" stroke="#000000" points="68.5,-67.5 68.5,-97.5 190.5,-97.5 190.5,-67.5 68.5,-67.5"/>
<text text-anchor="start" x="76.5" y="-85.5" font-family="Helvetica,sans-Serif" font-size="10.00" fill="#000000">tgs.parsers.svg.handler.</text>
<text text-anchor="middle" x="129.5" y="-74.5" font-family="Helvetica,sans-Serif" font-size="10.00" fill="#000000">SvgHandler</text>
</g>
<!-- Node1 -->
<g id="node2" class="node">
<title>Node1</title>
<g id="a_node2"><a xlink:href="classtgs_1_1parsers_1_1svg_1_1builder_1_1SvgBuilder.html" target="_top" xlink:title="tgs.parsers.svg.builder.\lSvgBuilder">
<polygon fill="#ffffff" stroke="#000000" points="0,-.5 0,-30.5 119,-30.5 119,-.5 0,-.5"/>
<text text-anchor="start" x="8" y="-18.5" font-family="Helvetica,sans-Serif" font-size="10.00" fill="#000000">tgs.parsers.svg.builder.</text>
<text text-anchor="middle" x="59.5" y="-7.5" font-family="Helvetica,sans-Serif" font-size="10.00" fill="#000000">SvgBuilder</text>
</a>
</g>
</g>
<!-- Node0&#45;&gt;Node1 -->
<g id="edge1" class="edge">
<title>Node0&#45;&gt;Node1</title>
<path fill="none" stroke="#191970" d="M106.2133,-60.2113C96.0681,-50.5009 84.4386,-39.3698 75.3212,-30.6432"/>
<polygon fill="#191970" stroke="#191970" points="103.9716,-62.9105 113.6159,-67.2967 108.8118,-57.8536 103.9716,-62.9105"/>
</g>
<!-- Node2 -->
<g id="node3" class="node">
<title>Node2</title>
<g id="a_node3"><a xlink:href="classtgs_1_1parsers_1_1svg_1_1importer_1_1SvgParser.html" target="_top" xlink:title="tgs.parsers.svg.importer.\lSvgParser">
<polygon fill="#ffffff" stroke="#000000" points="137,-.5 137,-30.5 262,-30.5 262,-.5 137,-.5"/>
<text text-anchor="start" x="145" y="-18.5" font-family="Helvetica,sans-Serif" font-size="10.00" fill="#000000">tgs.parsers.svg.importer.</text>
<text text-anchor="middle" x="199.5" y="-7.5" font-family="Helvetica,sans-Serif" font-size="10.00" fill="#000000">SvgParser</text>
</a>
</g>
</g>
<!-- Node0&#45;&gt;Node2 -->
<g id="edge2" class="edge">
<title>Node0&#45;&gt;Node2</title>
<path fill="none" stroke="#191970" d="M152.7867,-60.2113C162.9319,-50.5009 174.5614,-39.3698 183.6788,-30.6432"/>
<polygon fill="#191970" stroke="#191970" points="150.1882,-57.8536 145.3841,-67.2967 155.0284,-62.9105 150.1882,-57.8536"/>
</g>
</g>
</svg>
