<?xml version="1.0" encoding="UTF-8" standalone="no"?>
<!DOCTYPE svg PUBLIC "-//W3C//DTD SVG 1.1//EN"
 "http://www.w3.org/Graphics/SVG/1.1/DTD/svg11.dtd">
<!-- Generated by graphviz version 2.40.1 (20161225.0304)
 -->
<!-- Title: tgs.objects.layers.NullLayer Pages: 1 -->
<svg width="146pt" height="140pt"
 viewBox="0.00 0.00 146.00 140.00" xmlns="http://www.w3.org/2000/svg" xmlns:xlink="http://www.w3.org/1999/xlink">
<g id="graph0" class="graph" transform="scale(1 1) rotate(0) translate(4 136)">
<title>tgs.objects.layers.NullLayer</title>
<polygon fill="#ffffff" stroke="transparent" points="-4,4 -4,-136 142,-136 142,4 -4,4"/>
<!-- Node0 -->
<g id="node1" class="node">
<title>Node0</title>
<polygon fill="#bfbfbf" stroke="#000000" points="0,-.5 0,-19.5 138,-19.5 138,-.5 0,-.5"/>
<text text-anchor="middle" x="69" y="-7.5" font-family="Helvetica,sans-Serif" font-size="10.00" fill="#000000">tgs.objects.layers.NullLayer</text>
</g>
<!-- Node1 -->
<g id="node2" class="node">
<title>Node1</title>
<g id="a_node2"><a xlink:href="classtgs_1_1objects_1_1base_1_1TgsObject.html" target="_top" xlink:title="tgs.objects.base.TgsObject">
<polygon fill="#ffffff" stroke="#000000" points=".5,-56.5 .5,-75.5 137.5,-75.5 137.5,-56.5 .5,-56.5"/>
<text text-anchor="middle" x="69" y="-63.5" font-family="Helvetica,sans-Serif" font-size="10.00" fill="#000000">tgs.objects.base.TgsObject</text>
</a>
</g>
</g>
<!-- Node1&#45;&gt;Node0 -->
<g id="edge1" class="edge">
<title>Node1&#45;&gt;Node0</title>
<path fill="none" stroke="#191970" d="M69,-46.1575C69,-37.155 69,-26.9199 69,-19.6427"/>
<polygon fill="#191970" stroke="#191970" points="65.5001,-46.2455 69,-56.2455 72.5001,-46.2456 65.5001,-46.2455"/>
</g>
<!-- Node2 -->
<g id="node3" class="node">
<title>Node2</title>
<g id="a_node3"><a xlink:href="classtgs_1_1objects_1_1base_1_1Tgs.html" target="_top" xlink:title="tgs.objects.base.Tgs">
<polygon fill="#ffffff" stroke="#000000" points="15,-112.5 15,-131.5 123,-131.5 123,-112.5 15,-112.5"/>
<text text-anchor="middle" x="69" y="-119.5" font-family="Helvetica,sans-Serif" font-size="10.00" fill="#000000">tgs.objects.base.Tgs</text>
</a>
</g>
</g>
<!-- Node2&#45;&gt;Node1 -->
<g id="edge2" class="edge">
<title>Node2&#45;&gt;Node1</title>
<path fill="none" stroke="#191970" d="M69,-102.1575C69,-93.155 69,-82.9199 69,-75.6427"/>
<polygon fill="#191970" stroke="#191970" points="65.5001,-102.2455 69,-112.2455 72.5001,-102.2456 65.5001,-102.2455"/>
</g>
</g>
</svg>
