<?xml version="1.0" encoding="UTF-8" standalone="no"?>
<!DOCTYPE svg PUBLIC "-//W3C//DTD SVG 1.1//EN"
 "http://www.w3.org/Graphics/SVG/1.1/DTD/svg11.dtd">
<!-- Generated by graphviz version 2.40.1 (20161225.0304)
 -->
<!-- Title: tgs.objects.properties.AnimatableMixin Pages: 1 -->
<svg width="347pt" height="127pt"
 viewBox="0.00 0.00 347.00 126.50" xmlns="http://www.w3.org/2000/svg" xmlns:xlink="http://www.w3.org/1999/xlink">
<g id="graph0" class="graph" transform="scale(1 1) rotate(0) translate(4 122.5)">
<title>tgs.objects.properties.AnimatableMixin</title>
<polygon fill="#ffffff" stroke="transparent" points="-4,4 -4,-122.5 343,-122.5 343,4 -4,4"/>
<!-- Node0 -->
<g id="node1" class="node">
<title>Node0</title>
<polygon fill="#bfbfbf" stroke="#000000" points="0,-39 0,-69 162,-69 162,-39 0,-39"/>
<text text-anchor="start" x="8" y="-57" font-family="Helvetica,sans-Serif" font-size="10.00" fill="#000000">tgs.objects.properties.Animatable</text>
<text text-anchor="middle" x="81" y="-46" font-family="Helvetica,sans-Serif" font-size="10.00" fill="#000000">Mixin</text>
</g>
<!-- Node1 -->
<g id="node2" class="node">
<title>Node1</title>
<g id="a_node2"><a xlink:href="classtgs_1_1objects_1_1properties_1_1MultiDimensional.html" target="_top" xlink:title="tgs.objects.properties.Multi\lDimensional">
<polygon fill="#ffffff" stroke="#000000" points="201.5,-88 201.5,-118 335.5,-118 335.5,-88 201.5,-88"/>
<text text-anchor="start" x="209.5" y="-106" font-family="Helvetica,sans-Serif" font-size="10.00" fill="#000000">tgs.objects.properties.Multi</text>
<text text-anchor="middle" x="268.5" y="-95" font-family="Helvetica,sans-Serif" font-size="10.00" fill="#000000">Dimensional</text>
</a>
</g>
</g>
<!-- Node0&#45;&gt;Node1 -->
<g id="edge1" class="edge">
<title>Node0&#45;&gt;Node1</title>
<path fill="none" stroke="#191970" d="M148.4345,-71.6229C168.9479,-76.9837 191.2903,-82.8225 211.0784,-87.9938"/>
<polygon fill="#191970" stroke="#191970" points="149.0905,-68.1768 138.5304,-69.0346 147.3205,-74.9494 149.0905,-68.1768"/>
</g>
<!-- Node2 -->
<g id="node3" class="node">
<title>Node2</title>
<g id="a_node3"><a xlink:href="classtgs_1_1objects_1_1properties_1_1ShapeProperty.html" target="_top" xlink:title="tgs.objects.properties.Shape\lProperty">
<polygon fill="#ffffff" stroke="#000000" points="198,-39 198,-69 339,-69 339,-39 198,-39"/>
<text text-anchor="start" x="206" y="-57" font-family="Helvetica,sans-Serif" font-size="10.00" fill="#000000">tgs.objects.properties.Shape</text>
<text text-anchor="middle" x="268.5" y="-46" font-family="Helvetica,sans-Serif" font-size="10.00" fill="#000000">Property</text>
</a>
</g>
</g>
<!-- Node0&#45;&gt;Node2 -->
<g id="edge2" class="edge">
<title>Node0&#45;&gt;Node2</title>
<path fill="none" stroke="#191970" d="M172.2185,-54C180.8216,-54 189.4531,-54 197.823,-54"/>
<polygon fill="#191970" stroke="#191970" points="172.1498,-50.5001 162.1497,-54 172.1497,-57.5001 172.1498,-50.5001"/>
</g>
<!-- Node3 -->
<g id="node4" class="node">
<title>Node3</title>
<g id="a_node4"><a xlink:href="classtgs_1_1objects_1_1properties_1_1Value.html" target="_top" xlink:title="tgs.objects.properties.Value">
<polygon fill="#ffffff" stroke="#000000" points="199.5,-.5 199.5,-19.5 337.5,-19.5 337.5,-.5 199.5,-.5"/>
<text text-anchor="middle" x="268.5" y="-7.5" font-family="Helvetica,sans-Serif" font-size="10.00" fill="#000000">tgs.objects.properties.Value</text>
</a>
</g>
</g>
<!-- Node0&#45;&gt;Node3 -->
<g id="edge3" class="edge">
<title>Node0&#45;&gt;Node3</title>
<path fill="none" stroke="#191970" d="M154.8015,-36.6813C179.7135,-30.8352 206.5961,-24.5268 227.9641,-19.5124"/>
<polygon fill="#191970" stroke="#191970" points="153.9383,-33.2886 145.0024,-38.9808 155.5376,-40.1035 153.9383,-33.2886"/>
</g>
</g>
</svg>
