<?xml version="1.0" encoding="UTF-8" standalone="no"?>
<!DOCTYPE svg PUBLIC "-//W3C//DTD SVG 1.1//EN"
 "http://www.w3.org/Graphics/SVG/1.1/DTD/svg11.dtd">
<!-- Generated by graphviz version 2.40.1 (20161225.0304)
 -->
<!-- Title: tgs.objects.base.TgsEnum Pages: 1 -->
<svg width="206pt" height="84pt"
 viewBox="0.00 0.00 206.00 84.00" xmlns="http://www.w3.org/2000/svg" xmlns:xlink="http://www.w3.org/1999/xlink">
<g id="graph0" class="graph" transform="scale(1 1) rotate(0) translate(4 80)">
<title>tgs.objects.base.TgsEnum</title>
<polygon fill="#ffffff" stroke="transparent" points="-4,4 -4,-80 202,-80 202,4 -4,4"/>
<!-- Node12 -->
<g id="node1" class="node">
<title>Node12</title>
<polygon fill="#bfbfbf" stroke="#000000" points="41,-.5 41,-19.5 175,-19.5 175,-.5 41,-.5"/>
<text text-anchor="middle" x="108" y="-7.5" font-family="Helvetica,sans-Serif" font-size="10.00" fill="#000000">tgs.objects.base.TgsEnum</text>
</g>
<!-- Node13 -->
<g id="node2" class="node">
<title>Node13</title>
<g id="a_node2"><a xlink:href="classtgs_1_1objects_1_1base_1_1Tgs.html" target="_top" xlink:title="tgs.objects.base.Tgs">
<polygon fill="#ffffff" stroke="#000000" points="0,-56.5 0,-75.5 108,-75.5 108,-56.5 0,-56.5"/>
<text text-anchor="middle" x="54" y="-63.5" font-family="Helvetica,sans-Serif" font-size="10.00" fill="#000000">tgs.objects.base.Tgs</text>
</a>
</g>
</g>
<!-- Node13&#45;&gt;Node12 -->
<g id="edge1" class="edge">
<title>Node13&#45;&gt;Node12</title>
<path fill="none" stroke="#191970" d="M70.5969,-48.7884C79.8347,-39.2085 90.9904,-27.6396 98.7017,-19.6427"/>
<polygon fill="#191970" stroke="#191970" points="67.828,-46.6176 63.4061,-56.2455 72.8669,-51.4766 67.828,-46.6176"/>
</g>
<!-- Node14 -->
<g id="node3" class="node">
<title>Node14</title>
<polygon fill="#ffffff" stroke="#bfbfbf" points="126,-56.5 126,-75.5 198,-75.5 198,-56.5 126,-56.5"/>
<text text-anchor="middle" x="162" y="-63.5" font-family="Helvetica,sans-Serif" font-size="10.00" fill="#000000">enum::Enum</text>
</g>
<!-- Node14&#45;&gt;Node12 -->
<g id="edge2" class="edge">
<title>Node14&#45;&gt;Node12</title>
<path fill="none" stroke="#191970" d="M145.4031,-48.7884C136.1653,-39.2085 125.0096,-27.6396 117.2983,-19.6427"/>
<polygon fill="#191970" stroke="#191970" points="143.1331,-51.4766 152.5939,-56.2455 148.172,-46.6176 143.1331,-51.4766"/>
</g>
</g>
</svg>
