<?xml version="1.0" encoding="UTF-8" standalone="no"?>
<!DOCTYPE svg PUBLIC "-//W3C//DTD SVG 1.1//EN"
 "http://www.w3.org/Graphics/SVG/1.1/DTD/svg11.dtd">
<!-- Generated by graphviz version 2.40.1 (20161225.0304)
 -->
<!-- Title: tgs.objects.properties.ShapeProperty Pages: 1 -->
<svg width="326pt" height="162pt"
 viewBox="0.00 0.00 325.50 162.00" xmlns="http://www.w3.org/2000/svg" xmlns:xlink="http://www.w3.org/1999/xlink">
<g id="graph0" class="graph" transform="scale(1 1) rotate(0) translate(4 158)">
<title>tgs.objects.properties.ShapeProperty</title>
<polygon fill="#ffffff" stroke="transparent" points="-4,4 -4,-158 321.5,-158 321.5,4 -4,4"/>
<!-- Node4 -->
<g id="node1" class="node">
<title>Node4</title>
<polygon fill="#bfbfbf" stroke="#000000" points="82,-.5 82,-30.5 223,-30.5 223,-.5 82,-.5"/>
<text text-anchor="start" x="90" y="-18.5" font-family="Helvetica,sans-Serif" font-size="10.00" fill="#000000">tgs.objects.properties.Shape</text>
<text text-anchor="middle" x="152.5" y="-7.5" font-family="Helvetica,sans-Serif" font-size="10.00" fill="#000000">Property</text>
</g>
<!-- Node5 -->
<g id="node2" class="node">
<title>Node5</title>
<g id="a_node2"><a xlink:href="classtgs_1_1objects_1_1base_1_1TgsObject.html" target="_top" xlink:title="tgs.objects.base.TgsObject">
<polygon fill="#ffffff" stroke="#000000" points="0,-73 0,-92 137,-92 137,-73 0,-73"/>
<text text-anchor="middle" x="68.5" y="-80" font-family="Helvetica,sans-Serif" font-size="10.00" fill="#000000">tgs.objects.base.TgsObject</text>
</a>
</g>
</g>
<!-- Node5&#45;&gt;Node4 -->
<g id="edge1" class="edge">
<title>Node5&#45;&gt;Node4</title>
<path fill="none" stroke="#191970" d="M88.42,-66.6115C102.1219,-55.6825 120.2048,-41.2592 133.6667,-30.5218"/>
<polygon fill="#191970" stroke="#191970" points="86.1705,-63.9287 80.5352,-72.9005 90.5354,-69.4011 86.1705,-63.9287"/>
</g>
<!-- Node6 -->
<g id="node3" class="node">
<title>Node6</title>
<g id="a_node3"><a xlink:href="classtgs_1_1objects_1_1base_1_1Tgs.html" target="_top" xlink:title="tgs.objects.base.Tgs">
<polygon fill="#ffffff" stroke="#000000" points="14.5,-134.5 14.5,-153.5 122.5,-153.5 122.5,-134.5 14.5,-134.5"/>
<text text-anchor="middle" x="68.5" y="-141.5" font-family="Helvetica,sans-Serif" font-size="10.00" fill="#000000">tgs.objects.base.Tgs</text>
</a>
</g>
</g>
<!-- Node6&#45;&gt;Node5 -->
<g id="edge2" class="edge">
<title>Node6&#45;&gt;Node5</title>
<path fill="none" stroke="#191970" d="M68.5,-124.2462C68.5,-113.5519 68.5,-100.814 68.5,-92.2449"/>
<polygon fill="#191970" stroke="#191970" points="65.0001,-124.3906 68.5,-134.3906 72.0001,-124.3907 65.0001,-124.3906"/>
</g>
<!-- Node7 -->
<g id="node4" class="node">
<title>Node7</title>
<g id="a_node4"><a xlink:href="classtgs_1_1objects_1_1properties_1_1AnimatableMixin.html" target="_top" xlink:title="tgs.objects.properties.Animatable\lMixin">
<polygon fill="#ffffff" stroke="#000000" points="155.5,-67.5 155.5,-97.5 317.5,-97.5 317.5,-67.5 155.5,-67.5"/>
<text text-anchor="start" x="163.5" y="-85.5" font-family="Helvetica,sans-Serif" font-size="10.00" fill="#000000">tgs.objects.properties.Animatable</text>
<text text-anchor="middle" x="236.5" y="-74.5" font-family="Helvetica,sans-Serif" font-size="10.00" fill="#000000">Mixin</text>
</a>
</g>
</g>
<!-- Node7&#45;&gt;Node4 -->
<g id="edge3" class="edge">
<title>Node7&#45;&gt;Node4</title>
<path fill="none" stroke="#191970" d="M209.27,-60.7808C196.9301,-50.9383 182.6409,-39.541 171.4855,-30.6432"/>
<polygon fill="#191970" stroke="#191970" points="207.4388,-63.7973 217.4391,-67.2967 211.8038,-58.3248 207.4388,-63.7973"/>
</g>
</g>
</svg>
