<?xml version="1.0" encoding="UTF-8" standalone="no"?>
<!DOCTYPE svg PUBLIC "-//W3C//DTD SVG 1.1//EN"
 "http://www.w3.org/Graphics/SVG/1.1/DTD/svg11.dtd">
<!-- Generated by graphviz version 2.40.1 (20161225.0304)
 -->
<!-- Title: tgs.objects.base.Tgs Pages: 1 -->
<svg width="486pt" height="2007pt"
 viewBox="0.00 0.00 486.00 2007.00" xmlns="http://www.w3.org/2000/svg" xmlns:xlink="http://www.w3.org/1999/xlink">
<g id="graph0" class="graph" transform="scale(1 1) rotate(0) translate(4 2003)">
<title>tgs.objects.base.Tgs</title>
<polygon fill="#ffffff" stroke="transparent" points="-4,4 -4,-2003 482,-2003 482,4 -4,4"/>
<!-- Node0 -->
<g id="node1" class="node">
<title>Node0</title>
<polygon fill="#bfbfbf" stroke="#000000" points="0,-1287.5 0,-1306.5 108,-1306.5 108,-1287.5 0,-1287.5"/>
<text text-anchor="middle" x="54" y="-1294.5" font-family="Helvetica,sans-Serif" font-size="10.00" fill="#000000">tgs.objects.base.Tgs</text>
</g>
<!-- Node1 -->
<g id="node2" class="node">
<title>Node1</title>
<g id="a_node2"><a xlink:href="classtgs_1_1objects_1_1base_1_1TgsEnum.html" target="_top" xlink:title="tgs.objects.base.TgsEnum">
<polygon fill="#ffffff" stroke="#000000" points="145.5,-1808.5 145.5,-1827.5 279.5,-1827.5 279.5,-1808.5 145.5,-1808.5"/>
<text text-anchor="middle" x="212.5" y="-1815.5" font-family="Helvetica,sans-Serif" font-size="10.00" fill="#000000">tgs.objects.base.TgsEnum</text>
</a>
</g>
</g>
<!-- Node0&#45;&gt;Node1 -->
<g id="edge1" class="edge">
<title>Node0&#45;&gt;Node1</title>
<path fill="none" stroke="#191970" d="M59.94,-1316.5251C86.1138,-1402.5602 190.6921,-1746.316 209.5713,-1808.3731"/>
<polygon fill="#191970" stroke="#191970" points="63.2838,-1315.4908 57.0247,-1306.9424 56.5868,-1317.5282 63.2838,-1315.4908"/>
</g>
<!-- Node11 -->
<g id="node12" class="node">
<title>Node11</title>
<g id="a_node12"><a xlink:href="classtgs_1_1objects_1_1base_1_1TgsObject.html" target="_top" xlink:title="tgs.objects.base.TgsObject">
<polygon fill="#ffffff" stroke="#ff0000" points="144,-808.5 144,-827.5 281,-827.5 281,-808.5 144,-808.5"/>
<text text-anchor="middle" x="212.5" y="-815.5" font-family="Helvetica,sans-Serif" font-size="10.00" fill="#000000">tgs.objects.base.TgsObject</text>
</a>
</g>
</g>
<!-- Node0&#45;&gt;Node11 -->
<g id="edge11" class="edge">
<title>Node0&#45;&gt;Node11</title>
<path fill="none" stroke="#191970" d="M60.4363,-1277.549C87.2934,-1196.3848 189.9278,-886.2149 209.3264,-827.591"/>
<polygon fill="#191970" stroke="#191970" points="56.9848,-1276.8385 57.1661,-1287.4318 63.6304,-1279.0376 56.9848,-1276.8385"/>
</g>
<!-- Node2 -->
<g id="node3" class="node">
<title>Node2</title>
<g id="a_node3"><a xlink:href="classtgs_1_1objects_1_1enums_1_1TestBased.html" target="_top" xlink:title="tgs.objects.enums.TestBased">
<polygon fill="#ffffff" stroke="#000000" points="324,-1979.5 324,-1998.5 471,-1998.5 471,-1979.5 324,-1979.5"/>
<text text-anchor="middle" x="397.5" y="-1986.5" font-family="Helvetica,sans-Serif" font-size="10.00" fill="#000000">tgs.objects.enums.TestBased</text>
</a>
</g>
</g>
<!-- Node1&#45;&gt;Node2 -->
<g id="edge2" class="edge">
<title>Node1&#45;&gt;Node2</title>
<path fill="none" stroke="#191970" d="M220.0541,-1836.9727C234.0405,-1869.5475 267.1601,-1935.892 317,-1970 322.6882,-1973.8927 329.0734,-1976.9936 335.6942,-1979.4628"/>
<polygon fill="#191970" stroke="#191970" points="223.2569,-1835.559 216.1884,-1827.6667 216.7924,-1838.2443 223.2569,-1835.559"/>
</g>
<!-- Node3 -->
<g id="node4" class="node">
<title>Node3</title>
<g id="a_node4"><a xlink:href="classtgs_1_1objects_1_1enums_1_1TextGrouping.html" target="_top" xlink:title="tgs.objects.enums.TextGrouping">
<polygon fill="#ffffff" stroke="#000000" points="318.5,-1941.5 318.5,-1960.5 476.5,-1960.5 476.5,-1941.5 318.5,-1941.5"/>
<text text-anchor="middle" x="397.5" y="-1948.5" font-family="Helvetica,sans-Serif" font-size="10.00" fill="#000000">tgs.objects.enums.TextGrouping</text>
</a>
</g>
</g>
<!-- Node1&#45;&gt;Node3 -->
<g id="edge3" class="edge">
<title>Node1&#45;&gt;Node3</title>
<path fill="none" stroke="#191970" d="M223.9184,-1836.1321C240.9635,-1861.6334 275.5382,-1907.6892 317,-1932 323.5653,-1935.8495 330.8625,-1938.9195 338.3072,-1941.3676"/>
<polygon fill="#191970" stroke="#191970" points="226.8443,-1834.2113 218.4514,-1827.7452 220.9801,-1838.0338 226.8443,-1834.2113"/>
</g>
<!-- Node4 -->
<g id="node5" class="node">
<title>Node4</title>
<g id="a_node5"><a xlink:href="classtgs_1_1objects_1_1enums_1_1TextShape.html" target="_top" xlink:title="tgs.objects.enums.TextShape">
<polygon fill="#ffffff" stroke="#000000" points="324,-1903.5 324,-1922.5 471,-1922.5 471,-1903.5 324,-1903.5"/>
<text text-anchor="middle" x="397.5" y="-1910.5" font-family="Helvetica,sans-Serif" font-size="10.00" fill="#000000">tgs.objects.enums.TextShape</text>
</a>
</g>
</g>
<!-- Node1&#45;&gt;Node4 -->
<g id="edge4" class="edge">
<title>Node1&#45;&gt;Node4</title>
<path fill="none" stroke="#191970" d="M230.153,-1834.2872C249.8765,-1851.6154 283.4616,-1878.6068 317,-1894 325.3525,-1897.8335 334.56,-1900.9378 343.6729,-1903.4379"/>
<polygon fill="#191970" stroke="#191970" points="232.374,-1831.5778 222.5893,-1827.5144 227.7044,-1836.7927 232.374,-1831.5778"/>
</g>
<!-- Node5 -->
<g id="node6" class="node">
<title>Node5</title>
<g id="a_node6"><a xlink:href="classtgs_1_1objects_1_1layers_1_1BlendMode.html" target="_top" xlink:title="tgs.objects.layers.BlendMode">
<polygon fill="#ffffff" stroke="#000000" points="324.5,-1865.5 324.5,-1884.5 470.5,-1884.5 470.5,-1865.5 324.5,-1865.5"/>
<text text-anchor="middle" x="397.5" y="-1872.5" font-family="Helvetica,sans-Serif" font-size="10.00" fill="#000000">tgs.objects.layers.BlendMode</text>
</a>
</g>
</g>
<!-- Node1&#45;&gt;Node5 -->
<g id="edge5" class="edge">
<title>Node1&#45;&gt;Node5</title>
<path fill="none" stroke="#191970" d="M245.7573,-1831.2223C266.1263,-1839.0369 292.8383,-1848.7825 317,-1856 328.5575,-1859.4524 341.1975,-1862.6848 352.9653,-1865.4699"/>
<polygon fill="#191970" stroke="#191970" points="246.8955,-1827.9098 236.3065,-1827.5606 244.3666,-1834.437 246.8955,-1827.9098"/>
</g>
<!-- Node6 -->
<g id="node7" class="node">
<title>Node6</title>
<g id="a_node7"><a xlink:href="classtgs_1_1objects_1_1shapes_1_1Composite.html" target="_top" xlink:title="tgs.objects.shapes.Composite">
<polygon fill="#ffffff" stroke="#000000" points="323,-1827.5 323,-1846.5 472,-1846.5 472,-1827.5 323,-1827.5"/>
<text text-anchor="middle" x="397.5" y="-1834.5" font-family="Helvetica,sans-Serif" font-size="10.00" fill="#000000">tgs.objects.shapes.Composite</text>
</a>
</g>
</g>
<!-- Node1&#45;&gt;Node6 -->
<g id="edge6" class="edge">
<title>Node1&#45;&gt;Node6</title>
<path fill="none" stroke="#191970" d="M289.5607,-1825.9143C300.5725,-1827.0453 311.8847,-1828.2071 322.8491,-1829.3332"/>
<polygon fill="#191970" stroke="#191970" points="289.8561,-1822.4264 279.5508,-1824.8863 289.1409,-1829.3897 289.8561,-1822.4264"/>
</g>
<!-- Node7 -->
<g id="node8" class="node">
<title>Node7</title>
<g id="a_node8"><a xlink:href="classtgs_1_1objects_1_1shapes_1_1GradientType.html" target="_top" xlink:title="tgs.objects.shapes.GradientType">
<polygon fill="#ffffff" stroke="#000000" points="317,-1789.5 317,-1808.5 478,-1808.5 478,-1789.5 317,-1789.5"/>
<text text-anchor="middle" x="397.5" y="-1796.5" font-family="Helvetica,sans-Serif" font-size="10.00" fill="#000000">tgs.objects.shapes.GradientType</text>
</a>
</g>
</g>
<!-- Node1&#45;&gt;Node7 -->
<g id="edge7" class="edge">
<title>Node1&#45;&gt;Node7</title>
<path fill="none" stroke="#191970" d="M289.5978,-1810.0818C298.5884,-1809.1585 307.7788,-1808.2146 316.8162,-1807.2864"/>
<polygon fill="#191970" stroke="#191970" points="289.1409,-1806.6103 279.5508,-1811.1137 289.8561,-1813.5736 289.1409,-1806.6103"/>
</g>
<!-- Node8 -->
<g id="node9" class="node">
<title>Node8</title>
<g id="a_node9"><a xlink:href="classtgs_1_1objects_1_1shapes_1_1LineCap.html" target="_top" xlink:title="tgs.objects.shapes.LineCap">
<polygon fill="#ffffff" stroke="#000000" points="328.5,-1751.5 328.5,-1770.5 466.5,-1770.5 466.5,-1751.5 328.5,-1751.5"/>
<text text-anchor="middle" x="397.5" y="-1758.5" font-family="Helvetica,sans-Serif" font-size="10.00" fill="#000000">tgs.objects.shapes.LineCap</text>
</a>
</g>
</g>
<!-- Node1&#45;&gt;Node8 -->
<g id="edge8" class="edge">
<title>Node1&#45;&gt;Node8</title>
<path fill="none" stroke="#191970" d="M245.7573,-1804.7777C266.1263,-1796.9631 292.8383,-1787.2175 317,-1780 328.5575,-1776.5476 341.1975,-1773.3152 352.9653,-1770.5301"/>
<polygon fill="#191970" stroke="#191970" points="244.3666,-1801.563 236.3065,-1808.4394 246.8955,-1808.0902 244.3666,-1801.563"/>
</g>
<!-- Node9 -->
<g id="node10" class="node">
<title>Node9</title>
<g id="a_node10"><a xlink:href="classtgs_1_1objects_1_1shapes_1_1LineJoin.html" target="_top" xlink:title="tgs.objects.shapes.LineJoin">
<polygon fill="#ffffff" stroke="#000000" points="328.5,-1713.5 328.5,-1732.5 466.5,-1732.5 466.5,-1713.5 328.5,-1713.5"/>
<text text-anchor="middle" x="397.5" y="-1720.5" font-family="Helvetica,sans-Serif" font-size="10.00" fill="#000000">tgs.objects.shapes.LineJoin</text>
</a>
</g>
</g>
<!-- Node1&#45;&gt;Node9 -->
<g id="edge9" class="edge">
<title>Node1&#45;&gt;Node9</title>
<path fill="none" stroke="#191970" d="M230.153,-1801.7128C249.8765,-1784.3846 283.4616,-1757.3932 317,-1742 325.3525,-1738.1665 334.56,-1735.0622 343.6729,-1732.5621"/>
<polygon fill="#191970" stroke="#191970" points="227.7044,-1799.2073 222.5893,-1808.4856 232.374,-1804.4222 227.7044,-1799.2073"/>
</g>
<!-- Node10 -->
<g id="node11" class="node">
<title>Node10</title>
<g id="a_node11"><a xlink:href="classtgs_1_1objects_1_1shapes_1_1StarType.html" target="_top" xlink:title="tgs.objects.shapes.StarType">
<polygon fill="#ffffff" stroke="#000000" points="326.5,-1675.5 326.5,-1694.5 468.5,-1694.5 468.5,-1675.5 326.5,-1675.5"/>
<text text-anchor="middle" x="397.5" y="-1682.5" font-family="Helvetica,sans-Serif" font-size="10.00" fill="#000000">tgs.objects.shapes.StarType</text>
</a>
</g>
</g>
<!-- Node1&#45;&gt;Node10 -->
<g id="edge10" class="edge">
<title>Node1&#45;&gt;Node10</title>
<path fill="none" stroke="#191970" d="M223.9184,-1799.8679C240.9635,-1774.3666 275.5382,-1728.3108 317,-1704 323.5653,-1700.1505 330.8625,-1697.0805 338.3072,-1694.6324"/>
<polygon fill="#191970" stroke="#191970" points="220.9801,-1797.9662 218.4514,-1808.2548 226.8443,-1801.7887 220.9801,-1797.9662"/>
</g>
<!-- Node12 -->
<g id="node13" class="node">
<title>Node12</title>
<g id="a_node13"><a xlink:href="classtgs_1_1objects_1_1animation_1_1Animation.html" target="_top" xlink:title="tgs.objects.animation.Animation">
<polygon fill="#ffffff" stroke="#000000" points="319.5,-1637.5 319.5,-1656.5 475.5,-1656.5 475.5,-1637.5 319.5,-1637.5"/>
<text text-anchor="middle" x="397.5" y="-1644.5" font-family="Helvetica,sans-Serif" font-size="10.00" fill="#000000">tgs.objects.animation.Animation</text>
</a>
</g>
</g>
<!-- Node11&#45;&gt;Node12 -->
<g id="edge12" class="edge">
<title>Node11&#45;&gt;Node12</title>
<path fill="none" stroke="#191970" d="M213.721,-837.8395C221.185,-956.3043 262.1579,-1567.1676 317,-1628 320.3653,-1631.7329 324.3151,-1634.8002 328.6267,-1637.3142"/>
<polygon fill="#191970" stroke="#191970" points="217.2033,-837.4442 213.0876,-827.6814 210.2168,-837.8799 217.2033,-837.4442"/>
</g>
<!-- Node13 -->
<g id="node14" class="node">
<title>Node13</title>
<g id="a_node14"><a xlink:href="classtgs_1_1objects_1_1easing_1_1KeyframeBezierPoint.html" target="_top" xlink:title="tgs.objects.easing.Keyframe\lBezierPoint">
<polygon fill="#ffffff" stroke="#000000" points="327,-1588 327,-1618 468,-1618 468,-1588 327,-1588"/>
<text text-anchor="start" x="335" y="-1606" font-family="Helvetica,sans-Serif" font-size="10.00" fill="#000000">tgs.objects.easing.Keyframe</text>
<text text-anchor="middle" x="397.5" y="-1595" font-family="Helvetica,sans-Serif" font-size="10.00" fill="#000000">BezierPoint</text>
</a>
</g>
</g>
<!-- Node11&#45;&gt;Node13 -->
<g id="edge13" class="edge">
<title>Node11&#45;&gt;Node13</title>
<path fill="none" stroke="#191970" d="M213.9327,-837.6482C222.379,-951.2269 267.0155,-1520.7003 317,-1579 319.9426,-1582.4321 323.353,-1585.385 327.0747,-1587.9243"/>
<polygon fill="#191970" stroke="#191970" points="217.4177,-837.314 213.1918,-827.5984 210.4366,-837.8287 217.4177,-837.314"/>
</g>
<!-- Node14 -->
<g id="node15" class="node">
<title>Node14</title>
<g id="a_node15"><a xlink:href="classtgs_1_1objects_1_1effects_1_1AngleEffect.html" target="_top" xlink:title="tgs.objects.effects.Angle\lEffect">
<polygon fill="#ffffff" stroke="#000000" points="335,-1539 335,-1569 460,-1569 460,-1539 335,-1539"/>
<text text-anchor="start" x="343" y="-1557" font-family="Helvetica,sans-Serif" font-size="10.00" fill="#000000">tgs.objects.effects.Angle</text>
<text text-anchor="middle" x="397.5" y="-1546" font-family="Helvetica,sans-Serif" font-size="10.00" fill="#000000">Effect</text>
</a>
</g>
</g>
<!-- Node11&#45;&gt;Node14 -->
<g id="edge14" class="edge">
<title>Node11&#45;&gt;Node14</title>
<path fill="none" stroke="#191970" d="M214.1337,-837.7343C223.3514,-947.0979 270.1155,-1475.8258 317,-1530 321.8672,-1535.624 327.99,-1539.9596 334.675,-1543.2971"/>
<polygon fill="#191970" stroke="#191970" points="217.6191,-837.4122 213.2978,-827.7387 210.6434,-837.9956 217.6191,-837.4122"/>
</g>
<!-- Node15 -->
<g id="node16" class="node">
<title>Node15</title>
<g id="a_node16"><a xlink:href="classtgs_1_1objects_1_1effects_1_1CheckBoxEffect.html" target="_top" xlink:title="tgs.objects.effects.Check\lBoxEffect">
<polygon fill="#ffffff" stroke="#000000" points="333,-1490 333,-1520 462,-1520 462,-1490 333,-1490"/>
<text text-anchor="start" x="341" y="-1508" font-family="Helvetica,sans-Serif" font-size="10.00" fill="#000000">tgs.objects.effects.Check</text>
<text text-anchor="middle" x="397.5" y="-1497" font-family="Helvetica,sans-Serif" font-size="10.00" fill="#000000">BoxEffect</text>
</a>
</g>
</g>
<!-- Node11&#45;&gt;Node15 -->
<g id="edge15" class="edge">
<title>Node11&#45;&gt;Node15</title>
<path fill="none" stroke="#191970" d="M212.8666,-837.7489C215.1048,-937.1039 229.9182,-1381.4499 317,-1481 321.4168,-1486.0492 326.8455,-1490.0588 332.7798,-1493.2393"/>
<polygon fill="#191970" stroke="#191970" points="216.363,-837.5378 212.6561,-827.6126 209.3645,-837.6831 216.363,-837.5378"/>
</g>
<!-- Node16 -->
<g id="node17" class="node">
<title>Node16</title>
<g id="a_node17"><a xlink:href="classtgs_1_1objects_1_1effects_1_1ColorEffect.html" target="_top" xlink:title="tgs.objects.effects.Color\lEffect">
<polygon fill="#ffffff" stroke="#000000" points="335.5,-1441 335.5,-1471 459.5,-1471 459.5,-1441 335.5,-1441"/>
<text text-anchor="start" x="343.5" y="-1459" font-family="Helvetica,sans-Serif" font-size="10.00" fill="#000000">tgs.objects.effects.Color</text>
<text text-anchor="middle" x="397.5" y="-1448" font-family="Helvetica,sans-Serif" font-size="10.00" fill="#000000">Effect</text>
</a>
</g>
</g>
<!-- Node11&#45;&gt;Node16 -->
<g id="edge16" class="edge">
<title>Node11&#45;&gt;Node16</title>
<path fill="none" stroke="#191970" d="M213.1503,-838.0675C216.641,-933.5137 236.1371,-1340.6937 317,-1432 322.0278,-1437.6772 328.3345,-1442.0382 335.193,-1445.3836"/>
<polygon fill="#191970" stroke="#191970" points="216.6387,-837.6696 212.7937,-827.7971 209.6429,-837.9125 216.6387,-837.6696"/>
</g>
<!-- Node17 -->
<g id="node18" class="node">
<title>Node17</title>
<g id="a_node18"><a xlink:href="classtgs_1_1objects_1_1effects_1_1DropDownEffect.html" target="_top" xlink:title="tgs.objects.effects.Drop\lDownEffect">
<polygon fill="#ffffff" stroke="#000000" points="336.5,-1392 336.5,-1422 458.5,-1422 458.5,-1392 336.5,-1392"/>
<text text-anchor="start" x="344.5" y="-1410" font-family="Helvetica,sans-Serif" font-size="10.00" fill="#000000">tgs.objects.effects.Drop</text>
<text text-anchor="middle" x="397.5" y="-1399" font-family="Helvetica,sans-Serif" font-size="10.00" fill="#000000">DownEffect</text>
</a>
</g>
</g>
<!-- Node11&#45;&gt;Node17 -->
<g id="edge17" class="edge">
<title>Node11&#45;&gt;Node17</title>
<path fill="none" stroke="#191970" d="M213.4642,-837.8926C218.2388,-928.3141 242.1964,-1299.7435 317,-1383 322.3607,-1388.9665 329.1337,-1393.477 336.4647,-1396.8818"/>
<polygon fill="#191970" stroke="#191970" points="216.9584,-837.6864 212.9544,-827.8773 209.9674,-838.0424 216.9584,-837.6864"/>
</g>
<!-- Node18 -->
<g id="node19" class="node">
<title>Node18</title>
<g id="a_node19"><a xlink:href="classtgs_1_1objects_1_1effects_1_1FillEffect.html" target="_top" xlink:title="tgs.objects.effects.Fill\lEffect">
<polygon fill="#ffffff" stroke="#000000" points="341,-1343 341,-1373 454,-1373 454,-1343 341,-1343"/>
<text text-anchor="start" x="349" y="-1361" font-family="Helvetica,sans-Serif" font-size="10.00" fill="#000000">tgs.objects.effects.Fill</text>
<text text-anchor="middle" x="397.5" y="-1350" font-family="Helvetica,sans-Serif" font-size="10.00" fill="#000000">Effect</text>
</a>
</g>
</g>
<!-- Node11&#45;&gt;Node18 -->
<g id="edge18" class="edge">
<title>Node11&#45;&gt;Node18</title>
<path fill="none" stroke="#191970" d="M213.8543,-838.0375C220.0407,-923.7818 248.3223,-1258.8508 317,-1334 323.3948,-1340.9974 331.732,-1345.9887 340.6129,-1349.5415"/>
<polygon fill="#191970" stroke="#191970" points="217.3305,-837.5741 213.1394,-827.8434 210.3476,-838.0638 217.3305,-837.5741"/>
</g>
<!-- Node19 -->
<g id="node20" class="node">
<title>Node19</title>
<g id="a_node20"><a xlink:href="classtgs_1_1objects_1_1effects_1_1GroupEffect.html" target="_top" xlink:title="tgs.objects.effects.Group\lEffect">
<polygon fill="#ffffff" stroke="#000000" points="334,-1294 334,-1324 461,-1324 461,-1294 334,-1294"/>
<text text-anchor="start" x="342" y="-1312" font-family="Helvetica,sans-Serif" font-size="10.00" fill="#000000">tgs.objects.effects.Group</text>
<text text-anchor="middle" x="397.5" y="-1301" font-family="Helvetica,sans-Serif" font-size="10.00" fill="#000000">Effect</text>
</a>
</g>
</g>
<!-- Node11&#45;&gt;Node19 -->
<g id="edge19" class="edge">
<title>Node11&#45;&gt;Node19</title>
<path fill="none" stroke="#191970" d="M214.3015,-837.8994C221.9622,-918.2702 254.3467,-1217.8266 317,-1285 321.7746,-1290.1191 327.5888,-1294.1622 333.8849,-1297.353"/>
<polygon fill="#191970" stroke="#191970" points="217.7625,-837.3178 213.3499,-827.6856 210.7927,-837.9672 217.7625,-837.3178"/>
</g>
<!-- Node20 -->
<g id="node21" class="node">
<title>Node20</title>
<g id="a_node21"><a xlink:href="classtgs_1_1objects_1_1effects_1_1LayerEffect.html" target="_top" xlink:title="tgs.objects.effects.Layer\lEffect">
<polygon fill="#ffffff" stroke="#000000" points="335,-1245 335,-1275 460,-1275 460,-1245 335,-1245"/>
<text text-anchor="start" x="343" y="-1263" font-family="Helvetica,sans-Serif" font-size="10.00" fill="#000000">tgs.objects.effects.Layer</text>
<text text-anchor="middle" x="397.5" y="-1252" font-family="Helvetica,sans-Serif" font-size="10.00" fill="#000000">Effect</text>
</a>
</g>
</g>
<!-- Node11&#45;&gt;Node20 -->
<g id="edge20" class="edge">
<title>Node11&#45;&gt;Node20</title>
<path fill="none" stroke="#191970" d="M214.8392,-837.71C224.0799,-912.393 260.329,-1176.7334 317,-1236 322.0394,-1241.2702 328.1811,-1245.3972 334.8023,-1248.6266"/>
<polygon fill="#191970" stroke="#191970" points="218.3111,-837.2661 213.6305,-827.7613 211.3622,-838.1104 218.3111,-837.2661"/>
</g>
<!-- Node21 -->
<g id="node22" class="node">
<title>Node21</title>
<g id="a_node22"><a xlink:href="classtgs_1_1objects_1_1effects_1_1PointEffect.html" target="_top" xlink:title="tgs.objects.effects.Point\lEffect">
<polygon fill="#ffffff" stroke="#000000" points="336,-1196 336,-1226 459,-1226 459,-1196 336,-1196"/>
<text text-anchor="start" x="344" y="-1214" font-family="Helvetica,sans-Serif" font-size="10.00" fill="#000000">tgs.objects.effects.Point</text>
<text text-anchor="middle" x="397.5" y="-1203" font-family="Helvetica,sans-Serif" font-size="10.00" fill="#000000">Effect</text>
</a>
</g>
</g>
<!-- Node11&#45;&gt;Node21 -->
<g id="edge21" class="edge">
<title>Node11&#45;&gt;Node21</title>
<path fill="none" stroke="#191970" d="M215.5164,-837.5739C226.4859,-906.3557 266.2885,-1135.5851 317,-1187 322.3253,-1192.3991 328.8085,-1196.5951 335.7597,-1199.8539"/>
<polygon fill="#191970" stroke="#191970" points="218.965,-836.9725 213.9556,-827.6368 212.0497,-838.0588 218.965,-836.9725"/>
</g>
<!-- Node22 -->
<g id="node23" class="node">
<title>Node22</title>
<g id="a_node23"><a xlink:href="classtgs_1_1objects_1_1effects_1_1ProLevelsEffect.html" target="_top" xlink:title="tgs.objects.effects.ProLevels\lEffect">
<polygon fill="#ffffff" stroke="#000000" points="325.5,-1147 325.5,-1177 469.5,-1177 469.5,-1147 325.5,-1147"/>
<text text-anchor="start" x="333.5" y="-1165" font-family="Helvetica,sans-Serif" font-size="10.00" fill="#000000">tgs.objects.effects.ProLevels</text>
<text text-anchor="middle" x="397.5" y="-1154" font-family="Helvetica,sans-Serif" font-size="10.00" fill="#000000">Effect</text>
</a>
</g>
</g>
<!-- Node11&#45;&gt;Node22 -->
<g id="edge22" class="edge">
<title>Node11&#45;&gt;Node22</title>
<path fill="none" stroke="#191970" d="M216.4534,-837.7542C229.4013,-900.6126 272.276,-1094.4195 317,-1138 320.5512,-1141.4604 324.5791,-1144.425 328.8944,-1146.9645"/>
<polygon fill="#191970" stroke="#191970" points="219.8125,-836.709 214.3903,-827.6068 212.9529,-838.1037 219.8125,-836.709"/>
</g>
<!-- Node23 -->
<g id="node24" class="node">
<title>Node23</title>
<g id="a_node24"><a xlink:href="classtgs_1_1objects_1_1effects_1_1SliderEffect.html" target="_top" xlink:title="tgs.objects.effects.Slider\lEffect">
<polygon fill="#ffffff" stroke="#000000" points="335,-1098 335,-1128 460,-1128 460,-1098 335,-1098"/>
<text text-anchor="start" x="343" y="-1116" font-family="Helvetica,sans-Serif" font-size="10.00" fill="#000000">tgs.objects.effects.Slider</text>
<text text-anchor="middle" x="397.5" y="-1105" font-family="Helvetica,sans-Serif" font-size="10.00" fill="#000000">Effect</text>
</a>
</g>
</g>
<!-- Node11&#45;&gt;Node23 -->
<g id="edge23" class="edge">
<title>Node11&#45;&gt;Node23</title>
<path fill="none" stroke="#191970" d="M214.2504,-837.604C219.7419,-887.2218 241.0894,-1018.8116 317,-1089 322.1398,-1093.7523 328.1822,-1097.5663 334.6081,-1100.6267"/>
<polygon fill="#191970" stroke="#191970" points="217.7242,-837.1669 213.2375,-827.569 210.7596,-837.87 217.7242,-837.1669"/>
</g>
<!-- Node24 -->
<g id="node25" class="node">
<title>Node24</title>
<g id="a_node25"><a xlink:href="classtgs_1_1objects_1_1effects_1_1StrokeEffect.html" target="_top" xlink:title="tgs.objects.effects.Stroke\lEffect">
<polygon fill="#ffffff" stroke="#000000" points="333,-1049 333,-1079 462,-1079 462,-1049 333,-1049"/>
<text text-anchor="start" x="341" y="-1067" font-family="Helvetica,sans-Serif" font-size="10.00" fill="#000000">tgs.objects.effects.Stroke</text>
<text text-anchor="middle" x="397.5" y="-1056" font-family="Helvetica,sans-Serif" font-size="10.00" fill="#000000">Effect</text>
</a>
</g>
</g>
<!-- Node11&#45;&gt;Node24 -->
<g id="edge24" class="edge">
<title>Node11&#45;&gt;Node24</title>
<path fill="none" stroke="#191970" d="M216.1491,-837.7655C225.1791,-881.0316 252.6654,-984.6694 317,-1040 321.7544,-1044.089 327.1829,-1047.4815 332.9247,-1050.2961"/>
<polygon fill="#191970" stroke="#191970" points="219.5303,-836.8217 214.1573,-827.6904 212.6632,-838.1794 219.5303,-836.8217"/>
</g>
<!-- Node25 -->
<g id="node26" class="node">
<title>Node25</title>
<g id="a_node26"><a xlink:href="classtgs_1_1objects_1_1effects_1_1TintEffect.html" target="_top" xlink:title="tgs.objects.effects.Tint\lEffect">
<polygon fill="#ffffff" stroke="#000000" points="339,-1000 339,-1030 456,-1030 456,-1000 339,-1000"/>
<text text-anchor="start" x="347" y="-1018" font-family="Helvetica,sans-Serif" font-size="10.00" fill="#000000">tgs.objects.effects.Tint</text>
<text text-anchor="middle" x="397.5" y="-1007" font-family="Helvetica,sans-Serif" font-size="10.00" fill="#000000">Effect</text>
</a>
</g>
</g>
<!-- Node11&#45;&gt;Node25 -->
<g id="edge25" class="edge">
<title>Node11&#45;&gt;Node25</title>
<path fill="none" stroke="#191970" d="M218.8131,-837.2308C231.5364,-872.9725 263.6843,-949.7429 317,-991 323.4588,-995.998 330.944,-999.9578 338.6974,-1003.0945"/>
<polygon fill="#191970" stroke="#191970" points="222.0438,-835.862 215.4861,-827.5404 215.4231,-838.1351 222.0438,-835.862"/>
</g>
<!-- Node26 -->
<g id="node27" class="node">
<title>Node26</title>
<g id="a_node27"><a xlink:href="classtgs_1_1objects_1_1effects_1_1TritoneEffect.html" target="_top" xlink:title="tgs.objects.effects.Tritone\lEffect">
<polygon fill="#ffffff" stroke="#000000" points="332,-951 332,-981 463,-981 463,-951 332,-951"/>
<text text-anchor="start" x="340" y="-969" font-family="Helvetica,sans-Serif" font-size="10.00" fill="#000000">tgs.objects.effects.Tritone</text>
<text text-anchor="middle" x="397.5" y="-958" font-family="Helvetica,sans-Serif" font-size="10.00" fill="#000000">Effect</text>
</a>
</g>
</g>
<!-- Node11&#45;&gt;Node26 -->
<g id="edge26" class="edge">
<title>Node11&#45;&gt;Node26</title>
<path fill="none" stroke="#191970" d="M223.3127,-836.3776C240.0444,-863.2445 274.7313,-913.0751 317,-941 322.8609,-944.872 329.354,-948.1709 336.0362,-950.9755"/>
<polygon fill="#191970" stroke="#191970" points="226.164,-834.3299 217.98,-827.6014 220.1818,-837.9649 226.164,-834.3299"/>
</g>
<!-- Node27 -->
<g id="node28" class="node">
<title>Node27</title>
<g id="a_node28"><a xlink:href="classtgs_1_1objects_1_1helpers_1_1Mask.html" target="_top" xlink:title="tgs.objects.helpers.Mask">
<polygon fill="#ffffff" stroke="#000000" points="334.5,-912.5 334.5,-931.5 460.5,-931.5 460.5,-912.5 334.5,-912.5"/>
<text text-anchor="middle" x="397.5" y="-919.5" font-family="Helvetica,sans-Serif" font-size="10.00" fill="#000000">tgs.objects.helpers.Mask</text>
</a>
</g>
</g>
<!-- Node11&#45;&gt;Node27 -->
<g id="edge27" class="edge">
<title>Node11&#45;&gt;Node27</title>
<path fill="none" stroke="#191970" d="M228.3025,-834.818C247.4568,-854.1883 281.5912,-885.5748 317,-903 324.8593,-906.8677 333.5438,-909.9709 342.2139,-912.4545"/>
<polygon fill="#191970" stroke="#191970" points="230.7463,-832.3105 221.2743,-827.5639 225.7189,-837.1814 230.7463,-832.3105"/>
</g>
<!-- Node28 -->
<g id="node29" class="node">
<title>Node28</title>
<g id="a_node29"><a xlink:href="classtgs_1_1objects_1_1helpers_1_1Transform.html" target="_top" xlink:title="tgs.objects.helpers.Transform">
<polygon fill="#ffffff" stroke="#000000" points="324.5,-874.5 324.5,-893.5 470.5,-893.5 470.5,-874.5 324.5,-874.5"/>
<text text-anchor="middle" x="397.5" y="-881.5" font-family="Helvetica,sans-Serif" font-size="10.00" fill="#000000">tgs.objects.helpers.Transform</text>
</a>
</g>
</g>
<!-- Node11&#45;&gt;Node28 -->
<g id="edge28" class="edge">
<title>Node11&#45;&gt;Node28</title>
<path fill="none" stroke="#191970" d="M240.1056,-832.1636C260.8425,-842.3692 290.1678,-855.8926 317,-865 327.6063,-868.6 339.2225,-871.7701 350.2486,-874.4381"/>
<polygon fill="#191970" stroke="#191970" points="241.4545,-828.9253 230.9435,-827.5952 238.3309,-835.1898 241.4545,-828.9253"/>
</g>
<!-- Node29 -->
<g id="node30" class="node">
<title>Node29</title>
<g id="a_node30"><a xlink:href="classtgs_1_1objects_1_1layers_1_1ImageLayer.html" target="_top" xlink:title="tgs.objects.layers.Image\lLayer">
<polygon fill="#ffffff" stroke="#000000" points="335.5,-825 335.5,-855 459.5,-855 459.5,-825 335.5,-825"/>
<text text-anchor="start" x="343.5" y="-843" font-family="Helvetica,sans-Serif" font-size="10.00" fill="#000000">tgs.objects.layers.Image</text>
<text text-anchor="middle" x="397.5" y="-832" font-family="Helvetica,sans-Serif" font-size="10.00" fill="#000000">Layer</text>
</a>
</g>
</g>
<!-- Node11&#45;&gt;Node29 -->
<g id="edge29" class="edge">
<title>Node11&#45;&gt;Node29</title>
<path fill="none" stroke="#191970" d="M291.2453,-827.3643C306.0023,-829.1192 321.237,-830.9309 335.4016,-832.6153"/>
<polygon fill="#191970" stroke="#191970" points="291.4676,-823.8662 281.1243,-826.1607 290.641,-830.8172 291.4676,-823.8662"/>
</g>
<!-- Node30 -->
<g id="node31" class="node">
<title>Node30</title>
<g id="a_node31"><a xlink:href="classtgs_1_1objects_1_1layers_1_1NullLayer.html" target="_top" xlink:title="tgs.objects.layers.NullLayer">
<polygon fill="#ffffff" stroke="#000000" points="328.5,-786.5 328.5,-805.5 466.5,-805.5 466.5,-786.5 328.5,-786.5"/>
<text text-anchor="middle" x="397.5" y="-793.5" font-family="Helvetica,sans-Serif" font-size="10.00" fill="#000000">tgs.objects.layers.NullLayer</text>
</a>
</g>
</g>
<!-- Node11&#45;&gt;Node30 -->
<g id="edge30" class="edge">
<title>Node11&#45;&gt;Node30</title>
<path fill="none" stroke="#191970" d="M291.3634,-808.6216C303.6685,-807.1583 316.3028,-805.6559 328.3693,-804.221"/>
<polygon fill="#191970" stroke="#191970" points="290.641,-805.1828 281.1243,-809.8393 291.4676,-812.1338 290.641,-805.1828"/>
</g>
<!-- Node31 -->
<g id="node32" class="node">
<title>Node31</title>
<g id="a_node32"><a xlink:href="classtgs_1_1objects_1_1layers_1_1PreCompLayer.html" target="_top" xlink:title="tgs.objects.layers.PreComp\lLayer">
<polygon fill="#ffffff" stroke="#000000" points="328.5,-737 328.5,-767 466.5,-767 466.5,-737 328.5,-737"/>
<text text-anchor="start" x="336.5" y="-755" font-family="Helvetica,sans-Serif" font-size="10.00" fill="#000000">tgs.objects.layers.PreComp</text>
<text text-anchor="middle" x="397.5" y="-744" font-family="Helvetica,sans-Serif" font-size="10.00" fill="#000000">Layer</text>
</a>
</g>
</g>
<!-- Node11&#45;&gt;Node31 -->
<g id="edge31" class="edge">
<title>Node11&#45;&gt;Node31</title>
<path fill="none" stroke="#191970" d="M245.0563,-804.5212C265.5606,-796.2083 292.6629,-785.5406 317,-777 326.666,-773.6079 337.0647,-770.2017 347.0728,-767.0427"/>
<polygon fill="#191970" stroke="#191970" points="243.4995,-801.3761 235.5616,-808.3933 246.143,-807.8579 243.4995,-801.3761"/>
</g>
<!-- Node32 -->
<g id="node33" class="node">
<title>Node32</title>
<g id="a_node33"><a xlink:href="classtgs_1_1objects_1_1layers_1_1ShapeLayer.html" target="_top" xlink:title="tgs.objects.layers.Shape\lLayer">
<polygon fill="#ffffff" stroke="#000000" points="335,-688 335,-718 460,-718 460,-688 335,-688"/>
<text text-anchor="start" x="343" y="-706" font-family="Helvetica,sans-Serif" font-size="10.00" fill="#000000">tgs.objects.layers.Shape</text>
<text text-anchor="middle" x="397.5" y="-695" font-family="Helvetica,sans-Serif" font-size="10.00" fill="#000000">Layer</text>
</a>
</g>
</g>
<!-- Node11&#45;&gt;Node32 -->
<g id="edge32" class="edge">
<title>Node11&#45;&gt;Node32</title>
<path fill="none" stroke="#191970" d="M228.0279,-800.9017C247.1477,-780.7994 281.4755,-747.6871 317,-728 323.784,-724.2404 331.2094,-720.966 338.7198,-718.137"/>
<polygon fill="#191970" stroke="#191970" points="225.293,-798.7023 221.0277,-808.4006 230.41,-803.4789 225.293,-798.7023"/>
</g>
<!-- Node33 -->
<g id="node34" class="node">
<title>Node33</title>
<g id="a_node34"><a xlink:href="classtgs_1_1objects_1_1layers_1_1SolidLayer.html" target="_top" xlink:title="tgs.objects.layers.Solid\lLayer">
<polygon fill="#ffffff" stroke="#000000" points="338,-639 338,-669 457,-669 457,-639 338,-639"/>
<text text-anchor="start" x="346" y="-657" font-family="Helvetica,sans-Serif" font-size="10.00" fill="#000000">tgs.objects.layers.Solid</text>
<text text-anchor="middle" x="397.5" y="-646" font-family="Helvetica,sans-Serif" font-size="10.00" fill="#000000">Layer</text>
</a>
</g>
</g>
<!-- Node11&#45;&gt;Node33 -->
<g id="edge33" class="edge">
<title>Node11&#45;&gt;Node33</title>
<path fill="none" stroke="#191970" d="M221.5988,-799.3147C237.0688,-769.4796 271.3171,-711.1761 317,-679 323.3411,-674.5337 330.507,-670.8452 337.8843,-667.8039"/>
<polygon fill="#191970" stroke="#191970" points="218.464,-797.758 217.0829,-808.2625 224.7132,-800.912 218.464,-797.758"/>
</g>
<!-- Node34 -->
<g id="node35" class="node">
<title>Node34</title>
<g id="a_node35"><a xlink:href="classtgs_1_1objects_1_1layers_1_1TextLayer.html" target="_top" xlink:title="tgs.objects.layers.TextLayer">
<polygon fill="#ffffff" stroke="#000000" points="327.5,-600.5 327.5,-619.5 467.5,-619.5 467.5,-600.5 327.5,-600.5"/>
<text text-anchor="middle" x="397.5" y="-607.5" font-family="Helvetica,sans-Serif" font-size="10.00" fill="#000000">tgs.objects.layers.TextLayer</text>
</a>
</g>
</g>
<!-- Node11&#45;&gt;Node34 -->
<g id="edge34" class="edge">
<title>Node11&#45;&gt;Node34</title>
<path fill="none" stroke="#191970" d="M217.6636,-798.4708C228.8859,-759.9785 259.2528,-674.2189 317,-630 322.7168,-625.6225 329.2713,-622.192 336.1181,-619.5056"/>
<polygon fill="#191970" stroke="#191970" points="214.2088,-797.8298 214.892,-808.4026 220.9512,-799.7115 214.2088,-797.8298"/>
</g>
<!-- Node35 -->
<g id="node36" class="node">
<title>Node35</title>
<g id="a_node36"><a xlink:href="classtgs_1_1objects_1_1properties_1_1Bezier.html" target="_top" xlink:title="tgs.objects.properties.Bezier">
<polygon fill="#ffffff" stroke="#000000" points="327,-562.5 327,-581.5 468,-581.5 468,-562.5 327,-562.5"/>
<text text-anchor="middle" x="397.5" y="-569.5" font-family="Helvetica,sans-Serif" font-size="10.00" fill="#000000">tgs.objects.properties.Bezier</text>
</a>
</g>
</g>
<!-- Node11&#45;&gt;Node35 -->
<g id="edge35" class="edge">
<title>Node11&#45;&gt;Node35</title>
<path fill="none" stroke="#191970" d="M215.6058,-798.4124C223.6927,-754.1691 249.6526,-646.085 317,-591 321.6684,-587.1816 326.9717,-584.1047 332.576,-581.6288"/>
<polygon fill="#191970" stroke="#191970" points="212.1272,-797.99 213.8848,-808.4381 219.0263,-799.1744 212.1272,-797.99"/>
</g>
<!-- Node36 -->
<g id="node37" class="node">
<title>Node36</title>
<g id="a_node37"><a xlink:href="classtgs_1_1objects_1_1properties_1_1GradientColors.html" target="_top" xlink:title="tgs.objects.properties.Gradient\lColors">
<polygon fill="#ffffff" stroke="#000000" points="322.5,-513 322.5,-543 472.5,-543 472.5,-513 322.5,-513"/>
<text text-anchor="start" x="330.5" y="-531" font-family="Helvetica,sans-Serif" font-size="10.00" fill="#000000">tgs.objects.properties.Gradient</text>
<text text-anchor="middle" x="397.5" y="-520" font-family="Helvetica,sans-Serif" font-size="10.00" fill="#000000">Colors</text>
</a>
</g>
</g>
<!-- Node11&#45;&gt;Node36 -->
<g id="edge36" class="edge">
<title>Node11&#45;&gt;Node36</title>
<path fill="none" stroke="#191970" d="M214.5184,-798.2326C220.5713,-749.328 243.0053,-621.6776 317,-553 321.1832,-549.1174 325.9601,-545.8376 331.0527,-543.067"/>
<polygon fill="#191970" stroke="#191970" points="211.0139,-798.0734 213.3603,-808.4052 217.969,-798.8653 211.0139,-798.0734"/>
</g>
<!-- Node37 -->
<g id="node38" class="node">
<title>Node37</title>
<g id="a_node38"><a xlink:href="classtgs_1_1objects_1_1properties_1_1MultiDimensional.html" target="_top" xlink:title="tgs.objects.properties.Multi\lDimensional">
<polygon fill="#ffffff" stroke="#000000" points="330.5,-464 330.5,-494 464.5,-494 464.5,-464 330.5,-464"/>
<text text-anchor="start" x="338.5" y="-482" font-family="Helvetica,sans-Serif" font-size="10.00" fill="#000000">tgs.objects.properties.Multi</text>
<text text-anchor="middle" x="397.5" y="-471" font-family="Helvetica,sans-Serif" font-size="10.00" fill="#000000">Dimensional</text>
</a>
</g>
</g>
<!-- Node11&#45;&gt;Node37 -->
<g id="edge37" class="edge">
<title>Node11&#45;&gt;Node37</title>
<path fill="none" stroke="#191970" d="M216.6129,-798.2239C229.8836,-736.1678 273.2528,-546.8742 317,-504 320.9716,-500.1076 325.5379,-496.82 330.4348,-494.0432"/>
<polygon fill="#191970" stroke="#191970" points="213.1339,-797.759 214.4919,-808.2665 219.9829,-799.2056 213.1339,-797.759"/>
</g>
<!-- Node38 -->
<g id="node39" class="node">
<title>Node38</title>
<g id="a_node39"><a xlink:href="classtgs_1_1objects_1_1properties_1_1OffsetKeyframe.html" target="_top" xlink:title="tgs.objects.properties.Offset\lKeyframe">
<polygon fill="#ffffff" stroke="#000000" points="327.5,-415 327.5,-445 467.5,-445 467.5,-415 327.5,-415"/>
<text text-anchor="start" x="335.5" y="-433" font-family="Helvetica,sans-Serif" font-size="10.00" fill="#000000">tgs.objects.properties.Offset</text>
<text text-anchor="middle" x="397.5" y="-422" font-family="Helvetica,sans-Serif" font-size="10.00" fill="#000000">Keyframe</text>
</a>
</g>
</g>
<!-- Node11&#45;&gt;Node38 -->
<g id="edge38" class="edge">
<title>Node11&#45;&gt;Node38</title>
<path fill="none" stroke="#191970" d="M215.6559,-798.3159C226.95,-730.1705 267.3386,-505.706 317,-455 320.7887,-451.1316 325.1638,-447.8592 329.8766,-445.0913"/>
<polygon fill="#191970" stroke="#191970" points="212.2016,-797.7531 214.0436,-808.1866 219.11,-798.8816 212.2016,-797.7531"/>
</g>
<!-- Node39 -->
<g id="node40" class="node">
<title>Node39</title>
<g id="a_node40"><a xlink:href="classtgs_1_1objects_1_1properties_1_1ShapeProperty.html" target="_top" xlink:title="tgs.objects.properties.Shape\lProperty">
<polygon fill="#ffffff" stroke="#000000" points="327,-366 327,-396 468,-396 468,-366 327,-366"/>
<text text-anchor="start" x="335" y="-384" font-family="Helvetica,sans-Serif" font-size="10.00" fill="#000000">tgs.objects.properties.Shape</text>
<text text-anchor="middle" x="397.5" y="-373" font-family="Helvetica,sans-Serif" font-size="10.00" fill="#000000">Property</text>
</a>
</g>
</g>
<!-- Node11&#45;&gt;Node39 -->
<g id="edge39" class="edge">
<title>Node11&#45;&gt;Node39</title>
<path fill="none" stroke="#191970" d="M214.9596,-798.1343C224.5183,-723.9717 261.4413,-464.5674 317,-406 320.6258,-402.1779 324.8237,-398.9363 329.3612,-396.1877"/>
<polygon fill="#191970" stroke="#191970" points="211.4453,-798.027 213.6618,-808.3873 218.3899,-798.9061 211.4453,-798.027"/>
</g>
<!-- Node40 -->
<g id="node41" class="node">
<title>Node40</title>
<g id="a_node41"><a xlink:href="classtgs_1_1objects_1_1properties_1_1ShapePropKeyframe.html" target="_top" xlink:title="tgs.objects.properties.Shape\lPropKeyframe">
<polygon fill="#ffffff" stroke="#000000" points="327,-317 327,-347 468,-347 468,-317 327,-317"/>
<text text-anchor="start" x="335" y="-335" font-family="Helvetica,sans-Serif" font-size="10.00" fill="#000000">tgs.objects.properties.Shape</text>
<text text-anchor="middle" x="397.5" y="-324" font-family="Helvetica,sans-Serif" font-size="10.00" fill="#000000">PropKeyframe</text>
</a>
</g>
</g>
<!-- Node11&#45;&gt;Node40 -->
<g id="edge40" class="edge">
<title>Node11&#45;&gt;Node40</title>
<path fill="none" stroke="#191970" d="M214.36,-798.3733C222.2489,-719.1017 255.3989,-423.6171 317,-357 320.5768,-353.132 324.7395,-349.8575 329.2526,-347.086"/>
<polygon fill="#191970" stroke="#191970" points="210.8648,-798.1551 213.379,-808.4473 217.8319,-798.8337 210.8648,-798.1551"/>
</g>
<!-- Node41 -->
<g id="node42" class="node">
<title>Node41</title>
<g id="a_node42"><a xlink:href="classtgs_1_1objects_1_1properties_1_1Value.html" target="_top" xlink:title="tgs.objects.properties.Value">
<polygon fill="#ffffff" stroke="#000000" points="328.5,-278.5 328.5,-297.5 466.5,-297.5 466.5,-278.5 328.5,-278.5"/>
<text text-anchor="middle" x="397.5" y="-285.5" font-family="Helvetica,sans-Serif" font-size="10.00" fill="#000000">tgs.objects.properties.Value</text>
</a>
</g>
</g>
<!-- Node11&#45;&gt;Node41 -->
<g id="edge41" class="edge">
<title>Node11&#45;&gt;Node41</title>
<path fill="none" stroke="#191970" d="M213.8029,-798.1129C219.7769,-713.0237 247.3068,-380.6408 317,-308 321.0876,-303.7395 325.9307,-300.3307 331.1825,-297.6101"/>
<polygon fill="#191970" stroke="#191970" points="210.3016,-798.0148 213.1137,-808.2296 217.2854,-798.4906 210.3016,-798.0148"/>
</g>
<!-- Node42 -->
<g id="node43" class="node">
<title>Node42</title>
<g id="a_node43"><a xlink:href="classtgs_1_1objects_1_1shapes_1_1Ellipse.html" target="_top" xlink:title="tgs.objects.shapes.Ellipse">
<polygon fill="#ffffff" stroke="#000000" points="332,-240.5 332,-259.5 463,-259.5 463,-240.5 332,-240.5"/>
<text text-anchor="middle" x="397.5" y="-247.5" font-family="Helvetica,sans-Serif" font-size="10.00" fill="#000000">tgs.objects.shapes.Ellipse</text>
</a>
</g>
</g>
<!-- Node11&#45;&gt;Node42 -->
<g id="edge42" class="edge">
<title>Node11&#45;&gt;Node42</title>
<path fill="none" stroke="#191970" d="M213.4569,-798.2968C218.1699,-709.514 241.7994,-347.5598 317,-269 321.2697,-264.5395 326.3763,-261.0414 331.9181,-258.3083"/>
<polygon fill="#191970" stroke="#191970" points="209.9582,-798.1847 212.9435,-808.3502 216.9491,-798.5418 209.9582,-798.1847"/>
</g>
<!-- Node43 -->
<g id="node44" class="node">
<title>Node43</title>
<g id="a_node44"><a xlink:href="classtgs_1_1objects_1_1shapes_1_1Fill.html" target="_top" xlink:title="tgs.objects.shapes.Fill">
<polygon fill="#ffffff" stroke="#000000" points="340,-202.5 340,-221.5 455,-221.5 455,-202.5 340,-202.5"/>
<text text-anchor="middle" x="397.5" y="-209.5" font-family="Helvetica,sans-Serif" font-size="10.00" fill="#000000">tgs.objects.shapes.Fill</text>
</a>
</g>
</g>
<!-- Node11&#45;&gt;Node43 -->
<g id="edge43" class="edge">
<title>Node11&#45;&gt;Node43</title>
<path fill="none" stroke="#191970" d="M213.2002,-798.1209C216.876,-705.3164 236.9381,-315.6422 317,-231 323.2166,-224.4277 331.2487,-219.9396 339.8263,-216.9078"/>
<polygon fill="#191970" stroke="#191970" points="209.7018,-798.0154 212.8226,-808.1402 216.6969,-798.2791 209.7018,-798.0154"/>
</g>
<!-- Node44 -->
<g id="node45" class="node">
<title>Node44</title>
<g id="a_node45"><a xlink:href="classtgs_1_1objects_1_1shapes_1_1GradientFill.html" target="_top" xlink:title="tgs.objects.shapes.GradientFill">
<polygon fill="#ffffff" stroke="#000000" points="321.5,-164.5 321.5,-183.5 473.5,-183.5 473.5,-164.5 321.5,-164.5"/>
<text text-anchor="middle" x="397.5" y="-171.5" font-family="Helvetica,sans-Serif" font-size="10.00" fill="#000000">tgs.objects.shapes.GradientFill</text>
</a>
</g>
</g>
<!-- Node11&#45;&gt;Node44 -->
<g id="edge44" class="edge">
<title>Node11&#45;&gt;Node44</title>
<path fill="none" stroke="#191970" d="M212.9584,-798.3858C215.6033,-702.483 231.9364,-283.8821 317,-193 320.5326,-189.2258 324.6635,-186.1374 329.1547,-183.6164"/>
<polygon fill="#191970" stroke="#191970" points="209.4583,-798.3512 212.7001,-808.4378 216.456,-798.5311 209.4583,-798.3512"/>
</g>
<!-- Node45 -->
<g id="node46" class="node">
<title>Node45</title>
<g id="a_node46"><a xlink:href="classtgs_1_1objects_1_1shapes_1_1GradientStroke.html" target="_top" xlink:title="tgs.objects.shapes.Gradient\lStroke">
<polygon fill="#ffffff" stroke="#000000" points="328,-115 328,-145 467,-145 467,-115 328,-115"/>
<text text-anchor="start" x="336" y="-133" font-family="Helvetica,sans-Serif" font-size="10.00" fill="#000000">tgs.objects.shapes.Gradient</text>
<text text-anchor="middle" x="397.5" y="-122" font-family="Helvetica,sans-Serif" font-size="10.00" fill="#000000">Stroke</text>
</a>
</g>
</g>
<!-- Node11&#45;&gt;Node45 -->
<g id="edge45" class="edge">
<title>Node11&#45;&gt;Node45</title>
<path fill="none" stroke="#191970" d="M212.8884,-798.2701C215.2333,-699.0079 230.4855,-255.0435 317,-155 320.3503,-151.1258 324.2892,-147.8436 328.5932,-145.064"/>
<polygon fill="#191970" stroke="#191970" points="209.3865,-798.3226 212.6669,-808.3968 216.3848,-798.4757 209.3865,-798.3226"/>
</g>
<!-- Node46 -->
<g id="node47" class="node">
<title>Node46</title>
<g id="a_node47"><a xlink:href="classtgs_1_1objects_1_1shapes_1_1Group.html" target="_top" xlink:title="tgs.objects.shapes.Group">
<polygon fill="#ffffff" stroke="#000000" points="333.5,-76.5 333.5,-95.5 461.5,-95.5 461.5,-76.5 333.5,-76.5"/>
<text text-anchor="middle" x="397.5" y="-83.5" font-family="Helvetica,sans-Serif" font-size="10.00" fill="#000000">tgs.objects.shapes.Group</text>
</a>
</g>
</g>
<!-- Node11&#45;&gt;Node46 -->
<g id="edge46" class="edge">
<title>Node11&#45;&gt;Node46</title>
<path fill="none" stroke="#191970" d="M214.0924,-798.2433C223.09,-688.7166 268.874,-159.0782 317,-106 321.5463,-100.9859 327.1366,-97.1388 333.2343,-94.1992"/>
<polygon fill="#191970" stroke="#191970" points="210.5805,-798.2481 213.257,-808.4992 217.5574,-798.8164 210.5805,-798.2481"/>
</g>
<!-- Node47 -->
<g id="node48" class="node">
<title>Node47</title>
<g id="a_node48"><a xlink:href="classtgs_1_1objects_1_1shapes_1_1Merge.html" target="_top" xlink:title="tgs.objects.shapes.Merge">
<polygon fill="#ffffff" stroke="#000000" points="333,-38.5 333,-57.5 462,-57.5 462,-38.5 333,-38.5"/>
<text text-anchor="middle" x="397.5" y="-45.5" font-family="Helvetica,sans-Serif" font-size="10.00" fill="#000000">tgs.objects.shapes.Merge</text>
</a>
</g>
</g>
<!-- Node11&#45;&gt;Node47 -->
<g id="edge47" class="edge">
<title>Node11&#45;&gt;Node47</title>
<path fill="none" stroke="#191970" d="M213.9271,-798.2101C222.2599,-685.0447 266.0165,-122.9894 317,-67 321.4473,-62.116 326.8955,-58.3737 332.8414,-55.5206"/>
<polygon fill="#191970" stroke="#191970" points="210.4322,-798.0143 213.1951,-808.2426 217.4137,-798.5238 210.4322,-798.0143"/>
</g>
<!-- Node48 -->
<g id="node49" class="node">
<title>Node48</title>
<g id="a_node49"><a xlink:href="classtgs_1_1objects_1_1shapes_1_1Rect.html" target="_top" xlink:title="tgs.objects.shapes.Rect">
<polygon fill="#ffffff" stroke="#000000" points="336,-.5 336,-19.5 459,-19.5 459,-.5 336,-.5"/>
<text text-anchor="middle" x="397.5" y="-7.5" font-family="Helvetica,sans-Serif" font-size="10.00" fill="#000000">tgs.objects.shapes.Rect</text>
</a>
</g>
</g>
<!-- Node11&#45;&gt;Node48 -->
<g id="edge48" class="edge">
<title>Node11&#45;&gt;Node48</title>
<path fill="none" stroke="#191970" d="M213.7822,-798.309C221.526,-682.0232 263.5122,-88.1291 317,-29 322.2019,-23.2495 328.791,-19.0795 335.9508,-16.0793"/>
<polygon fill="#191970" stroke="#191970" points="210.2891,-798.0909 213.1234,-808.2996 217.2739,-798.5516 210.2891,-798.0909"/>
</g>
</g>
</svg>
