<?xml version="1.0" encoding="UTF-8" standalone="no"?>
<!DOCTYPE svg PUBLIC "-//W3C//DTD SVG 1.1//EN"
 "http://www.w3.org/Graphics/SVG/1.1/DTD/svg11.dtd">
<!-- Generated by graphviz version 2.40.1 (20161225.0304)
 -->
<!-- Title: tgs.objects.layers.PreCompLayer Pages: 1 -->
<svg width="146pt" height="151pt"
 viewBox="0.00 0.00 146.00 151.00" xmlns="http://www.w3.org/2000/svg" xmlns:xlink="http://www.w3.org/1999/xlink">
<g id="graph0" class="graph" transform="scale(1 1) rotate(0) translate(4 147)">
<title>tgs.objects.layers.PreCompLayer</title>
<polygon fill="#ffffff" stroke="transparent" points="-4,4 -4,-147 142,-147 142,4 -4,4"/>
<!-- Node3 -->
<g id="node1" class="node">
<title>Node3</title>
<polygon fill="#bfbfbf" stroke="#000000" points="0,-.5 0,-30.5 138,-30.5 138,-.5 0,-.5"/>
<text text-anchor="start" x="8" y="-18.5" font-family="Helvetica,sans-Serif" font-size="10.00" fill="#000000">tgs.objects.layers.PreComp</text>
<text text-anchor="middle" x="69" y="-7.5" font-family="Helvetica,sans-Serif" font-size="10.00" fill="#000000">Layer</text>
</g>
<!-- Node4 -->
<g id="node2" class="node">
<title>Node4</title>
<g id="a_node2"><a xlink:href="classtgs_1_1objects_1_1base_1_1TgsObject.html" target="_top" xlink:title="tgs.objects.base.TgsObject">
<polygon fill="#ffffff" stroke="#000000" points=".5,-67.5 .5,-86.5 137.5,-86.5 137.5,-67.5 .5,-67.5"/>
<text text-anchor="middle" x="69" y="-74.5" font-family="Helvetica,sans-Serif" font-size="10.00" fill="#000000">tgs.objects.base.TgsObject</text>
</a>
</g>
</g>
<!-- Node4&#45;&gt;Node3 -->
<g id="edge1" class="edge">
<title>Node4&#45;&gt;Node3</title>
<path fill="none" stroke="#191970" d="M69,-57.3693C69,-48.681 69,-38.6241 69,-30.5446"/>
<polygon fill="#191970" stroke="#191970" points="65.5001,-57.3906 69,-67.3906 72.5001,-57.3907 65.5001,-57.3906"/>
</g>
<!-- Node5 -->
<g id="node3" class="node">
<title>Node5</title>
<g id="a_node3"><a xlink:href="classtgs_1_1objects_1_1base_1_1Tgs.html" target="_top" xlink:title="tgs.objects.base.Tgs">
<polygon fill="#ffffff" stroke="#000000" points="15,-123.5 15,-142.5 123,-142.5 123,-123.5 15,-123.5"/>
<text text-anchor="middle" x="69" y="-130.5" font-family="Helvetica,sans-Serif" font-size="10.00" fill="#000000">tgs.objects.base.Tgs</text>
</a>
</g>
</g>
<!-- Node5&#45;&gt;Node4 -->
<g id="edge2" class="edge">
<title>Node5&#45;&gt;Node4</title>
<path fill="none" stroke="#191970" d="M69,-113.1575C69,-104.155 69,-93.9199 69,-86.6427"/>
<polygon fill="#191970" stroke="#191970" points="65.5001,-113.2455 69,-123.2455 72.5001,-113.2456 65.5001,-113.2455"/>
</g>
</g>
</svg>
