<?xml version="1.0" encoding="UTF-8" standalone="no"?>
<!DOCTYPE svg PUBLIC "-//W3C//DTD SVG 1.1//EN"
 "http://www.w3.org/Graphics/SVG/1.1/DTD/svg11.dtd">
<!-- Generated by graphviz version 2.40.1 (20161225.0304)
 -->
<!-- Title: tgs.utils.animation.PointDisplacer Pages: 1 -->
<svg width="306pt" height="235pt"
 viewBox="0.00 0.00 306.00 235.00" xmlns="http://www.w3.org/2000/svg" xmlns:xlink="http://www.w3.org/1999/xlink">
<g id="graph0" class="graph" transform="scale(1 1) rotate(0) translate(4 231)">
<title>tgs.utils.animation.PointDisplacer</title>
<polygon fill="#ffffff" stroke="transparent" points="-4,4 -4,-231 302,-231 302,4 -4,4"/>
<!-- Node0 -->
<g id="node1" class="node">
<title>Node0</title>
<polygon fill="#bfbfbf" stroke="#000000" points="0,-98.5 0,-128.5 122,-128.5 122,-98.5 0,-98.5"/>
<text text-anchor="start" x="8" y="-116.5" font-family="Helvetica,sans-Serif" font-size="10.00" fill="#000000">tgs.utils.animation.Point</text>
<text text-anchor="middle" x="61" y="-105.5" font-family="Helvetica,sans-Serif" font-size="10.00" fill="#000000">Displacer</text>
</g>
<!-- Node1 -->
<g id="node2" class="node">
<title>Node1</title>
<g id="a_node2"><a xlink:href="classtgs_1_1utils_1_1animation_1_1DepthRotationDisplacer.html" target="_top" xlink:title="tgs.utils.animation.Depth\lRotationDisplacer">
<polygon fill="#ffffff" stroke="#000000" points="165.5,-196.5 165.5,-226.5 290.5,-226.5 290.5,-196.5 165.5,-196.5"/>
<text text-anchor="start" x="173.5" y="-214.5" font-family="Helvetica,sans-Serif" font-size="10.00" fill="#000000">tgs.utils.animation.Depth</text>
<text text-anchor="middle" x="228" y="-203.5" font-family="Helvetica,sans-Serif" font-size="10.00" fill="#000000">RotationDisplacer</text>
</a>
</g>
</g>
<!-- Node0&#45;&gt;Node1 -->
<g id="edge1" class="edge">
<title>Node0&#45;&gt;Node1</title>
<path fill="none" stroke="#191970" d="M85.1139,-135.4314C103.8754,-151.5831 131.1526,-173.1455 158,-187.5 164.1179,-190.7711 170.7695,-193.73 177.4573,-196.363"/>
<polygon fill="#191970" stroke="#191970" points="87.2035,-132.609 77.3732,-128.6572 82.5935,-137.8767 87.2035,-132.609"/>
</g>
<!-- Node2 -->
<g id="node3" class="node">
<title>Node2</title>
<g id="a_node3"><a xlink:href="classtgs_1_1utils_1_1animation_1_1DisplacerDampener.html" target="_top" xlink:title="tgs.utils.animation.Displacer\lDampener">
<polygon fill="#ffffff" stroke="#000000" points="158,-147.5 158,-177.5 298,-177.5 298,-147.5 158,-147.5"/>
<text text-anchor="start" x="166" y="-165.5" font-family="Helvetica,sans-Serif" font-size="10.00" fill="#000000">tgs.utils.animation.Displacer</text>
<text text-anchor="middle" x="228" y="-154.5" font-family="Helvetica,sans-Serif" font-size="10.00" fill="#000000">Dampener</text>
</a>
</g>
</g>
<!-- Node0&#45;&gt;Node2 -->
<g id="edge2" class="edge">
<title>Node0&#45;&gt;Node2</title>
<path fill="none" stroke="#191970" d="M122.2344,-131.467C140.1275,-136.717 159.4922,-142.3989 176.7018,-147.4484"/>
<polygon fill="#191970" stroke="#191970" points="123.0491,-128.0585 112.4682,-128.6014 121.0782,-134.7754 123.0491,-128.0585"/>
</g>
<!-- Node3 -->
<g id="node4" class="node">
<title>Node3</title>
<g id="a_node4"><a xlink:href="classtgs_1_1utils_1_1animation_1_1EnvelopeDeformation.html" target="_top" xlink:title="tgs.utils.animation.Envelope\lDeformation">
<polygon fill="#ffffff" stroke="#000000" points="158,-98.5 158,-128.5 298,-128.5 298,-98.5 158,-98.5"/>
<text text-anchor="start" x="166" y="-116.5" font-family="Helvetica,sans-Serif" font-size="10.00" fill="#000000">tgs.utils.animation.Envelope</text>
<text text-anchor="middle" x="228" y="-105.5" font-family="Helvetica,sans-Serif" font-size="10.00" fill="#000000">Deformation</text>
</a>
</g>
</g>
<!-- Node0&#45;&gt;Node3 -->
<g id="edge3" class="edge">
<title>Node0&#45;&gt;Node3</title>
<path fill="none" stroke="#191970" d="M132.3764,-113.5C140.7766,-113.5 149.3441,-113.5 157.729,-113.5"/>
<polygon fill="#191970" stroke="#191970" points="132.2364,-110.0001 122.2364,-113.5 132.2363,-117.0001 132.2364,-110.0001"/>
</g>
<!-- Node4 -->
<g id="node5" class="node">
<title>Node4</title>
<g id="a_node5"><a xlink:href="classtgs_1_1utils_1_1animation_1_1MultiSineDisplacer.html" target="_top" xlink:title="tgs.utils.animation.Multi\lSineDisplacer">
<polygon fill="#ffffff" stroke="#000000" points="168,-49.5 168,-79.5 288,-79.5 288,-49.5 168,-49.5"/>
<text text-anchor="start" x="176" y="-67.5" font-family="Helvetica,sans-Serif" font-size="10.00" fill="#000000">tgs.utils.animation.Multi</text>
<text text-anchor="middle" x="228" y="-56.5" font-family="Helvetica,sans-Serif" font-size="10.00" fill="#000000">SineDisplacer</text>
</a>
</g>
</g>
<!-- Node0&#45;&gt;Node4 -->
<g id="edge4" class="edge">
<title>Node0&#45;&gt;Node4</title>
<path fill="none" stroke="#191970" d="M122.2344,-95.533C140.1275,-90.283 159.4922,-84.6011 176.7018,-79.5516"/>
<polygon fill="#191970" stroke="#191970" points="121.0782,-92.2246 112.4682,-98.3986 123.0491,-98.9415 121.0782,-92.2246"/>
</g>
<!-- Node5 -->
<g id="node6" class="node">
<title>Node5</title>
<g id="a_node6"><a xlink:href="classtgs_1_1utils_1_1animation_1_1SineDisplacer.html" target="_top" xlink:title="tgs.utils.animation.Sine\lDisplacer">
<polygon fill="#ffffff" stroke="#000000" points="168.5,-.5 168.5,-30.5 287.5,-30.5 287.5,-.5 168.5,-.5"/>
<text text-anchor="start" x="176.5" y="-18.5" font-family="Helvetica,sans-Serif" font-size="10.00" fill="#000000">tgs.utils.animation.Sine</text>
<text text-anchor="middle" x="228" y="-7.5" font-family="Helvetica,sans-Serif" font-size="10.00" fill="#000000">Displacer</text>
</a>
</g>
</g>
<!-- Node0&#45;&gt;Node5 -->
<g id="edge5" class="edge">
<title>Node0&#45;&gt;Node5</title>
<path fill="none" stroke="#191970" d="M85.5591,-91.6943C104.3616,-75.8544 131.4914,-54.7788 158,-40.5 164.8167,-36.8282 172.2833,-33.5042 179.7207,-30.5668"/>
<polygon fill="#191970" stroke="#191970" points="83.1108,-89.1828 77.7879,-98.3435 87.6617,-94.5017 83.1108,-89.1828"/>
</g>
</g>
</svg>
