<?xml version="1.0" encoding="UTF-8" standalone="no"?>
<!DOCTYPE svg PUBLIC "-//W3C//DTD SVG 1.1//EN"
 "http://www.w3.org/Graphics/SVG/1.1/DTD/svg11.dtd">
<!-- Generated by graphviz version 2.40.1 (20161225.0304)
 -->
<!-- Title: Graphical Class Hierarchy Pages: 1 -->
<svg width="291pt" height="137pt"
 viewBox="0.00 0.00 291.00 137.00" xmlns="http://www.w3.org/2000/svg" xmlns:xlink="http://www.w3.org/1999/xlink">
<g id="graph0" class="graph" transform="scale(1 1) rotate(0) translate(4 133)">
<title>Graphical Class Hierarchy</title>
<polygon fill="#ffffff" stroke="transparent" points="-4,4 -4,-133 287,-133 287,4 -4,4"/>
<!-- Node99 -->
<g id="node1" class="node">
<title>Node99</title>
<polygon fill="#ffffff" stroke="#bfbfbf" points="19.5,-78 19.5,-97 102.5,-97 102.5,-78 19.5,-78"/>
<text text-anchor="middle" x="61" y="-85" font-family="Helvetica,sans-Serif" font-size="10.00" fill="#000000">AbstractBuilder</text>
</g>
<!-- Node100 -->
<g id="node2" class="node">
<title>Node100</title>
<g id="a_node2"><a xlink:href="classtgs_1_1parsers_1_1sif_1_1builder_1_1SifBuilder.html" target="_top" xlink:title="tgs.parsers.sif.builder.\lSifBuilder">
<polygon fill="#ffffff" stroke="#000000" points="164,-98.5 164,-128.5 277,-128.5 277,-98.5 164,-98.5"/>
<text text-anchor="start" x="172" y="-116.5" font-family="Helvetica,sans-Serif" font-size="10.00" fill="#000000">tgs.parsers.sif.builder.</text>
<text text-anchor="middle" x="220.5" y="-105.5" font-family="Helvetica,sans-Serif" font-size="10.00" fill="#000000">SifBuilder</text>
</a>
</g>
</g>
<!-- Node99&#45;&gt;Node100 -->
<g id="edge1" class="edge">
<title>Node99&#45;&gt;Node100</title>
<path fill="none" stroke="#191970" d="M112.8095,-95.9454C129.1317,-98.6061 147.2413,-101.5581 163.8804,-104.2705"/>
<polygon fill="#191970" stroke="#191970" points="113.3396,-92.4857 102.9067,-94.3312 112.2133,-99.3945 113.3396,-92.4857"/>
</g>
<!-- Node1 -->
<g id="node3" class="node">
<title>Node1</title>
<g id="a_node3"><a xlink:href="classtgs_1_1parsers_1_1svg_1_1builder_1_1SvgBuilder.html" target="_top" xlink:title="tgs.parsers.svg.builder.\lSvgBuilder">
<polygon fill="#ffffff" stroke="#000000" points="161,-49.5 161,-79.5 280,-79.5 280,-49.5 161,-49.5"/>
<text text-anchor="start" x="169" y="-67.5" font-family="Helvetica,sans-Serif" font-size="10.00" fill="#000000">tgs.parsers.svg.builder.</text>
<text text-anchor="middle" x="220.5" y="-56.5" font-family="Helvetica,sans-Serif" font-size="10.00" fill="#000000">SvgBuilder</text>
</a>
</g>
</g>
<!-- Node99&#45;&gt;Node1 -->
<g id="edge2" class="edge">
<title>Node99&#45;&gt;Node1</title>
<path fill="none" stroke="#191970" d="M113.1849,-79.9749C128.4317,-77.7763 145.2112,-75.3567 160.8813,-73.0971"/>
<polygon fill="#191970" stroke="#191970" points="112.3048,-76.5655 102.9067,-81.457 113.3039,-83.4939 112.3048,-76.5655"/>
</g>
<!-- Node0 -->
<g id="node4" class="node">
<title>Node0</title>
<g id="a_node4"><a xlink:href="classtgs_1_1parsers_1_1svg_1_1handler_1_1SvgHandler.html" target="_top" xlink:title="tgs.parsers.svg.handler.\lSvgHandler">
<polygon fill="#ffffff" stroke="#000000" points="0,-26.5 0,-56.5 122,-56.5 122,-26.5 0,-26.5"/>
<text text-anchor="start" x="8" y="-44.5" font-family="Helvetica,sans-Serif" font-size="10.00" fill="#000000">tgs.parsers.svg.handler.</text>
<text text-anchor="middle" x="61" y="-33.5" font-family="Helvetica,sans-Serif" font-size="10.00" fill="#000000">SvgHandler</text>
</a>
</g>
</g>
<!-- Node0&#45;&gt;Node1 -->
<g id="edge3" class="edge">
<title>Node0&#45;&gt;Node1</title>
<path fill="none" stroke="#191970" d="M132.4054,-51.7967C141.8817,-53.1632 151.5168,-54.5526 160.7678,-55.8866"/>
<polygon fill="#191970" stroke="#191970" points="132.6079,-48.2898 122.2107,-50.3266 131.6088,-55.2181 132.6079,-48.2898"/>
</g>
<!-- Node2 -->
<g id="node5" class="node">
<title>Node2</title>
<g id="a_node5"><a xlink:href="classtgs_1_1parsers_1_1svg_1_1importer_1_1SvgParser.html" target="_top" xlink:title="tgs.parsers.svg.importer.\lSvgParser">
<polygon fill="#ffffff" stroke="#000000" points="158,-.5 158,-30.5 283,-30.5 283,-.5 158,-.5"/>
<text text-anchor="start" x="166" y="-18.5" font-family="Helvetica,sans-Serif" font-size="10.00" fill="#000000">tgs.parsers.svg.importer.</text>
<text text-anchor="middle" x="220.5" y="-7.5" font-family="Helvetica,sans-Serif" font-size="10.00" fill="#000000">SvgParser</text>
</a>
</g>
</g>
<!-- Node0&#45;&gt;Node2 -->
<g id="edge4" class="edge">
<title>Node0&#45;&gt;Node2</title>
<path fill="none" stroke="#191970" d="M132.1786,-29.8972C140.7425,-28.5012 149.4397,-27.0835 157.8691,-25.7094"/>
<polygon fill="#191970" stroke="#191970" points="131.5173,-26.4587 122.2107,-31.5221 132.6436,-33.3675 131.5173,-26.4587"/>
</g>
</g>
</svg>
