<?xml version="1.0" encoding="UTF-8" standalone="no"?>
<!DOCTYPE svg PUBLIC "-//W3C//DTD SVG 1.1//EN"
 "http://www.w3.org/Graphics/SVG/1.1/DTD/svg11.dtd">
<!-- Generated by graphviz version 2.40.1 (20161225.0304)
 -->
<!-- Title: Graphical Class Hierarchy Pages: 1 -->
<svg width="294pt" height="88pt"
 viewBox="0.00 0.00 294.00 88.00" xmlns="http://www.w3.org/2000/svg" xmlns:xlink="http://www.w3.org/1999/xlink">
<g id="graph0" class="graph" transform="scale(1 1) rotate(0) translate(4 84)">
<title>Graphical Class Hierarchy</title>
<polygon fill="#ffffff" stroke="transparent" points="-4,4 -4,-84 290,-84 290,4 -4,4"/>
<!-- Node0 -->
<g id="node1" class="node">
<title>Node0</title>
<g id="a_node1"><a xlink:href="classtgs_1_1parsers_1_1svg_1_1importer_1_1SvgGradient.html" target="_top" xlink:title="tgs.parsers.svg.importer.\lSvgGradient">
<polygon fill="#ffffff" stroke="#000000" points="0,-24.5 0,-54.5 125,-54.5 125,-24.5 0,-24.5"/>
<text text-anchor="start" x="8" y="-42.5" font-family="Helvetica,sans-Serif" font-size="10.00" fill="#000000">tgs.parsers.svg.importer.</text>
<text text-anchor="middle" x="62.5" y="-31.5" font-family="Helvetica,sans-Serif" font-size="10.00" fill="#000000">SvgGradient</text>
</a>
</g>
</g>
<!-- Node1 -->
<g id="node2" class="node">
<title>Node1</title>
<g id="a_node2"><a xlink:href="classtgs_1_1parsers_1_1svg_1_1importer_1_1SvgLinearGradient.html" target="_top" xlink:title="tgs.parsers.svg.importer.\lSvgLinearGradient">
<polygon fill="#ffffff" stroke="#000000" points="161,-49.5 161,-79.5 286,-79.5 286,-49.5 161,-49.5"/>
<text text-anchor="start" x="169" y="-67.5" font-family="Helvetica,sans-Serif" font-size="10.00" fill="#000000">tgs.parsers.svg.importer.</text>
<text text-anchor="middle" x="223.5" y="-56.5" font-family="Helvetica,sans-Serif" font-size="10.00" fill="#000000">SvgLinearGradient</text>
</a>
</g>
</g>
<!-- Node0&#45;&gt;Node1 -->
<g id="edge1" class="edge">
<title>Node0&#45;&gt;Node1</title>
<path fill="none" stroke="#191970" d="M135.2184,-50.7917C143.8129,-52.1262 152.5268,-53.4793 160.9633,-54.7893"/>
<polygon fill="#191970" stroke="#191970" points="135.6265,-47.3132 125.2078,-49.2372 134.5523,-54.2303 135.6265,-47.3132"/>
</g>
<!-- Node2 -->
<g id="node3" class="node">
<title>Node2</title>
<g id="a_node3"><a xlink:href="classtgs_1_1parsers_1_1svg_1_1importer_1_1SvgRadialGradient.html" target="_top" xlink:title="tgs.parsers.svg.importer.\lSvgRadialGradient">
<polygon fill="#ffffff" stroke="#000000" points="161,-.5 161,-30.5 286,-30.5 286,-.5 161,-.5"/>
<text text-anchor="start" x="169" y="-18.5" font-family="Helvetica,sans-Serif" font-size="10.00" fill="#000000">tgs.parsers.svg.importer.</text>
<text text-anchor="middle" x="223.5" y="-7.5" font-family="Helvetica,sans-Serif" font-size="10.00" fill="#000000">SvgRadialGradient</text>
</a>
</g>
</g>
<!-- Node0&#45;&gt;Node2 -->
<g id="edge2" class="edge">
<title>Node0&#45;&gt;Node2</title>
<path fill="none" stroke="#191970" d="M135.2184,-28.66C143.8129,-27.3788 152.5268,-26.0799 160.9633,-24.8222"/>
<polygon fill="#191970" stroke="#191970" points="134.5825,-25.216 125.2078,-30.1523 135.6146,-32.1395 134.5825,-25.216"/>
</g>
</g>
</svg>
